<?xml version="1.0" encoding="UTF-8" standalone="no"?>
<!-- Creator: CorelDRAW -->

<svg
   xml:space="preserve"
   width="300mm"
   height="300mm"
   style="clip-rule:evenodd;fill-rule:evenodd;image-rendering:optimizeQuality;shape-rendering:geometricPrecision;text-rendering:geometricPrecision"
   viewBox="0 0 1133.8639 1133.8583"
   version="1.1"
   id="svg50"
   sodipodi:docname="biosc1540-mascot-question.svg"
   inkscape:version="1.1.2 (0a00cf5339, 2022-02-04)"
   xmlns:inkscape="http://www.inkscape.org/namespaces/inkscape"
   xmlns:sodipodi="http://sodipodi.sourceforge.net/DTD/sodipodi-0.dtd"
   xmlns:xlink="http://www.w3.org/1999/xlink"
   xmlns="http://www.w3.org/2000/svg"
   xmlns:svg="http://www.w3.org/2000/svg"><sodipodi:namedview
   id="namedview52"
   pagecolor="#ffffff"
   bordercolor="#666666"
   borderopacity="1.0"
   inkscape:pageshadow="2"
   inkscape:pageopacity="0.0"
   inkscape:pagecheckerboard="0"
   showgrid="false"
   inkscape:zoom="0.24554272"
   inkscape:cx="1331.7438"
   inkscape:cy="594.60122"
   inkscape:window-width="1868"
   inkscape:window-height="1136"
   inkscape:window-x="52"
   inkscape:window-y="27"
   inkscape:window-maximized="1"
   inkscape:current-layer="layer_1-2"
   units="mm"
   width="529.16669mm"
   inkscape:document-units="mm" />
 <defs
   id="defs7">
  <style
   type="text/css"
   id="style2">
   <![CDATA[
    .fil2 {fill:none}
    .fil6 {fill:#433F3C}
    .fil1 {fill:#4FC3F7}
    .fil0 {fill:#81D4FA}
    .fil3 {fill:#D0372F}
    .fil5 {fill:#E35525}
    .fil4 {fill:#FFB90C}
    .fil8 {fill:#FFDB01}
    .fil7 {fill:white}
   ]]>
  </style>
   <clipPath
   id="id0">
    <path
   d="m 1024,-0.0011811 c 565.539,0 1024,458.4620011 1024,1023.9999811 0,565.539 -458.462,1024 -1024,1024 -565.539,0 -1024,-458.462 -1024,-1024 C 0,458.45982 458.462,-0.0011811 1024,-0.0011811 Z"
   id="path4" />
   </clipPath>
 <linearGradient
   id="linear-gradient"
   x1="10.52"
   y1="52.75"
   x2="18.59"
   y2="52.75"
   gradientUnits="userSpaceOnUse"><stop
     offset="0"
     stop-color="#00b4d8"
     id="stop4" /><stop
     offset="1"
     stop-color="#0096c7"
     id="stop6" /></linearGradient><linearGradient
   id="linear-gradient-2"
   x1="38.669998"
   y1="63.200001"
   x2="44.509998"
   y2="73.330002"
   xlink:href="#linear-gradient" /><linearGradient
   id="linear-gradient-3"
   x1="80.419998"
   y1="44.16"
   x2="79.809998"
   y2="44.16"
   xlink:href="#linear-gradient" /><linearGradient
   id="linear-gradient-4"
   x1="53.459999"
   y1="28.6"
   x2="52.849998"
   y2="28.6"
   xlink:href="#linear-gradient" /><linearGradient
   id="linear-gradient-5"
   x1="76.760002"
   y1="64"
   x2="66.25"
   y2="64"
   gradientUnits="userSpaceOnUse"><stop
     offset="0"
     stop-color="#ffd500"
     id="stop12" /><stop
     offset="1"
     stop-color="#fdc500"
     id="stop14" /></linearGradient><linearGradient
   id="linear-gradient-6"
   x1="73.309998"
   y1="66"
   x2="62.790001"
   y2="66"
   xlink:href="#linear-gradient-5" /><linearGradient
   id="linear-gradient-7"
   x1="69.800003"
   y1="68"
   x2="59.279999"
   y2="68"
   xlink:href="#linear-gradient-5" /><linearGradient
   id="linear-gradient-8"
   x1="66.389999"
   y1="70"
   x2="55.880001"
   y2="70"
   xlink:href="#linear-gradient-5" /><linearGradient
   id="linear-gradient-9"
   x1="80.220001"
   y1="62"
   x2="69.709999"
   y2="62"
   xlink:href="#linear-gradient-5" /><linearGradient
   id="linear-gradient-10"
   x1="83.68"
   y1="60"
   x2="73.160004"
   y2="60"
   xlink:href="#linear-gradient-5" /><linearGradient
   id="linear-gradient-11"
   x1="87.150002"
   y1="58"
   x2="76.629997"
   y2="58"
   xlink:href="#linear-gradient-5" /><linearGradient
   id="linear-gradient-12"
   x1="22.25"
   y1="34"
   x2="32.759998"
   y2="34"
   xlink:href="#linear-gradient-5" /><linearGradient
   id="linear-gradient-13"
   x1="18.799999"
   y1="36"
   x2="29.309999"
   y2="36"
   xlink:href="#linear-gradient-5" /><linearGradient
   id="linear-gradient-14"
   x1="15.28"
   y1="38"
   x2="25.799999"
   y2="38"
   xlink:href="#linear-gradient-5" /><linearGradient
   id="linear-gradient-15"
   x1="11.88"
   y1="40"
   x2="22.4"
   y2="40"
   xlink:href="#linear-gradient-5" /><linearGradient
   id="linear-gradient-16"
   x1="25.709999"
   y1="32"
   x2="36.220001"
   y2="32"
   xlink:href="#linear-gradient-5" /><linearGradient
   id="linear-gradient-17"
   x1="29.16"
   y1="30"
   x2="39.68"
   y2="30"
   xlink:href="#linear-gradient-5" /><linearGradient
   id="linear-gradient-18"
   x1="32.630001"
   y1="28"
   x2="43.139999"
   y2="28"
   xlink:href="#linear-gradient-5" /><linearGradient
   id="linear-gradient-19"
   x1="26.68"
   y1="23.92"
   x2="70.32"
   y2="67.559998"
   xlink:href="#linear-gradient" /><linearGradient
   id="linear-gradient-20"
   x1="20.15"
   y1="46"
   x2="77.82"
   y2="46"
   gradientUnits="userSpaceOnUse"><stop
     offset="0"
     stop-color="#caf0f8"
     id="stop31" /><stop
     offset="1"
     stop-color="#90e0ef"
     id="stop33" /></linearGradient><linearGradient
   id="linear-gradient-21"
   x1="25.620001"
   y1="43.029999"
   x2="71.980003"
   y2="43.029999"
   xlink:href="#linear-gradient" /><linearGradient
   id="linear-gradient-22"
   x1="6.29"
   y1="48.990002"
   x2="7.4899998"
   y2="48.990002"
   xlink:href="#linear-gradient" /><linearGradient
   id="linear-gradient-23"
   x1="90.690002"
   y1="50.650002"
   x2="89.5"
   y2="50.650002"
   xlink:href="#linear-gradient" /><linearGradient
   id="linear-gradient-24"
   x1="10.53"
   y1="50.700001"
   x2="7.4699998"
   y2="50.700001"
   xlink:href="#linear-gradient" /><linearGradient
   id="linear-gradient-25"
   x1="18.629999"
   y1="55.82"
   x2="17.969999"
   y2="55.82"
   xlink:href="#linear-gradient" /><linearGradient
   id="linear-gradient-26"
   x1="18.610001"
   y1="61.700001"
   x2="37.490002"
   y2="61.700001"
   xlink:href="#linear-gradient" /><linearGradient
   id="linear-gradient-27"
   x1="45.59"
   y1="71.389999"
   x2="44.93"
   y2="71.389999"
   xlink:href="#linear-gradient" /><linearGradient
   id="linear-gradient-28"
   x1="52.860001"
   y1="62.110001"
   x2="89.519997"
   y2="62.110001"
   xlink:href="#linear-gradient" /><linearGradient
   id="linear-gradient-29"
   x1="45.57"
   y1="72.290001"
   x2="47.209999"
   y2="72.290001"
   xlink:href="#linear-gradient" /><linearGradient
   id="linear-gradient-30"
   x1="52.880001"
   y1="73.099998"
   x2="47.200001"
   y2="73.099998"
   xlink:href="#linear-gradient" /><linearGradient
   id="linear-gradient-31"
   x1="14.59"
   y1="43.23"
   x2="16.59"
   y2="43.23"
   xlink:href="#linear-gradient-5" /><linearGradient
   id="linear-gradient-32"
   x1="17.41"
   y1="41.59"
   x2="19.41"
   y2="41.59"
   xlink:href="#linear-gradient-5" /><linearGradient
   id="linear-gradient-33"
   x1="20.23"
   y1="39.950001"
   x2="22.23"
   y2="39.950001"
   xlink:href="#linear-gradient-5" /><linearGradient
   id="linear-gradient-34"
   x1="23.049999"
   y1="38.310001"
   x2="25.049999"
   y2="38.310001"
   xlink:href="#linear-gradient-5" /><linearGradient
   id="linear-gradient-35"
   x1="71.230003"
   y1="54.689999"
   x2="73.220001"
   y2="54.689999"
   xlink:href="#linear-gradient-5" /><linearGradient
   id="linear-gradient-36"
   x1="74.040001"
   y1="53.060001"
   x2="76.040001"
   y2="53.060001"
   xlink:href="#linear-gradient-5" /><linearGradient
   id="linear-gradient-37"
   x1="76.860001"
   y1="51.419998"
   x2="78.860001"
   y2="51.419998"
   xlink:href="#linear-gradient-5" /><linearGradient
   id="linear-gradient-38"
   x1="79.68"
   y1="49.779999"
   x2="81.68"
   y2="49.779999"
   xlink:href="#linear-gradient-5" /><linearGradient
   id="linear-gradient-39"
   x1="25.610001"
   y1="44.259998"
   x2="26.23"
   y2="44.259998"
   xlink:href="#linear-gradient" /><linearGradient
   id="linear-gradient-40"
   x1="71.360001"
   y1="45.91"
   x2="71.980003"
   y2="45.91"
   xlink:href="#linear-gradient" /><linearGradient
   id="linear-gradient-41"
   x1="55.970001"
   y1="48.799999"
   x2="67.150002"
   y2="55.25"
   xlink:href="#linear-gradient" /><linearGradient
   id="linear-gradient-42"
   x1="25.530001"
   y1="44.290001"
   x2="49.509998"
   y2="58.130001"
   xlink:href="#linear-gradient" /><linearGradient
   id="linear-gradient-43"
   x1="48.799999"
   y1="57.900002"
   x2="51.759998"
   y2="57.900002"
   xlink:href="#linear-gradient" /><linearGradient
   id="linear-gradient-44"
   x1="40.400002"
   y1="42.799999"
   x2="53.099998"
   y2="42.799999"
   xlink:href="#linear-gradient-5" /><linearGradient
   id="linear-gradient-45"
   x1="37.290001"
   y1="47.57"
   x2="50.869999"
   y2="47.57"
   xlink:href="#linear-gradient-5" /><linearGradient
   id="linear-gradient-46"
   x1="59.73"
   y1="45.610001"
   x2="71.160004"
   y2="45.610001"
   xlink:href="#linear-gradient-5" /><linearGradient
   id="linear-gradient-47"
   x1="46.630001"
   y1="46.669998"
   x2="62.630001"
   y2="46.669998"
   xlink:href="#linear-gradient-5" /><linearGradient
   id="linear-gradient-48"
   x1="44.950001"
   y1="33.110001"
   x2="56.029999"
   y2="33.110001"
   xlink:href="#linear-gradient-5" /><linearGradient
   id="linear-gradient-49"
   x1="51.110001"
   y1="38.509998"
   x2="57.790001"
   y2="38.509998"
   xlink:href="#linear-gradient-5" /><linearGradient
   id="linear-gradient-50"
   x1="55.119999"
   y1="38.77"
   x2="63.07"
   y2="38.77"
   xlink:href="#linear-gradient-5" /><linearGradient
   id="linear-gradient-51"
   x1="59.43"
   y1="42.099998"
   x2="65.709999"
   y2="42.099998"
   xlink:href="#linear-gradient-5" /><linearGradient
   id="linear-gradient-52"
   x1="29.32"
   y1="42.490002"
   x2="35.93"
   y2="42.490002"
   xlink:href="#linear-gradient-5" /><linearGradient
   id="linear-gradient-53"
   x1="31.65"
   y1="42.82"
   x2="52.52"
   y2="42.82"
   xlink:href="#linear-gradient-5" /><linearGradient
   id="linear-gradient-54"
   x1="33.990002"
   y1="36.360001"
   x2="43.900002"
   y2="36.360001"
   xlink:href="#linear-gradient-5" /><linearGradient
   id="linear-gradient-55"
   x1="41.560001"
   y1="35.919998"
   x2="47.75"
   y2="35.919998"
   xlink:href="#linear-gradient-5" /><linearGradient
   id="linear-gradient-56"
   x1="28.17"
   y1="43.16"
   x2="30.950001"
   y2="43.16"
   xlink:href="#linear-gradient-5" /><linearGradient
   id="linear-gradient-57"
   x1="35.200001"
   y1="49.889999"
   x2="48.830002"
   y2="49.889999"
   xlink:href="#linear-gradient-5" /><linearGradient
   id="linear-gradient-58"
   x1="45.02"
   y1="54.27"
   x2="48.75"
   y2="54.27"
   xlink:href="#linear-gradient-5" /><linearGradient
   id="linear-gradient-59"
   x1="66.980003"
   y1="41.41"
   x2="49.759998"
   y2="41.41"
   xlink:href="#linear-gradient-20" /><linearGradient
   id="linear-gradient-60"
   x1="48.240002"
   y1="30.59"
   x2="31.02"
   y2="30.59"
   xlink:href="#linear-gradient-20" /><linearGradient
   id="linear-gradient-61"
   x1="45.52"
   y1="41.900002"
   x2="32.169998"
   y2="41.900002"
   xlink:href="#linear-gradient-20" /><linearGradient
   id="linear-gradient-62"
   x1="65.830002"
   y1="30.1"
   x2="52.48"
   y2="30.1"
   xlink:href="#linear-gradient-20" /><linearGradient
   id="linear-gradient-63"
   x1="31.49"
   y1="36"
   x2="66.519997"
   y2="36"
   xlink:href="#linear-gradient-20" /><linearGradient
   id="linear-gradient-64"
   x1="34.310001"
   y1="36"
   x2="63.689999"
   y2="36"
   xlink:href="#linear-gradient-5" /><linearGradient
   inkscape:collect="always"
   xlink:href="#linear-gradient"
   id="linearGradient1050"
   gradientUnits="userSpaceOnUse"
   x1="10.52"
   y1="52.75"
   x2="18.59"
   y2="52.75" /><linearGradient
   id="linear-gradient-2-9"
   x1="38.669998"
   y1="63.200001"
   x2="44.509998"
   y2="73.330002"
   xlink:href="#linear-gradient" /><linearGradient
   id="linear-gradient-3-1"
   x1="80.419998"
   y1="44.16"
   x2="79.809998"
   y2="44.16"
   xlink:href="#linear-gradient" /><linearGradient
   id="linear-gradient-4-2"
   x1="53.459999"
   y1="28.6"
   x2="52.849998"
   y2="28.6"
   xlink:href="#linear-gradient" /><linearGradient
   inkscape:collect="always"
   xlink:href="#linear-gradient-5"
   id="linearGradient1052"
   gradientUnits="userSpaceOnUse"
   x1="76.760002"
   y1="64"
   x2="66.25"
   y2="64" /><linearGradient
   id="linear-gradient-6-9"
   x1="73.309998"
   y1="66"
   x2="62.790001"
   y2="66"
   xlink:href="#linear-gradient-5" /><linearGradient
   id="linear-gradient-7-3"
   x1="69.800003"
   y1="68"
   x2="59.279999"
   y2="68"
   xlink:href="#linear-gradient-5" /><linearGradient
   id="linear-gradient-8-6"
   x1="66.389999"
   y1="70"
   x2="55.880001"
   y2="70"
   xlink:href="#linear-gradient-5" /><linearGradient
   id="linear-gradient-9-0"
   x1="80.220001"
   y1="62"
   x2="69.709999"
   y2="62"
   xlink:href="#linear-gradient-5" /><linearGradient
   id="linear-gradient-10-6"
   x1="83.68"
   y1="60"
   x2="73.160004"
   y2="60"
   xlink:href="#linear-gradient-5" /><linearGradient
   id="linear-gradient-11-2"
   x1="87.150002"
   y1="58"
   x2="76.629997"
   y2="58"
   xlink:href="#linear-gradient-5" /><linearGradient
   id="linear-gradient-12-6"
   x1="22.25"
   y1="34"
   x2="32.759998"
   y2="34"
   xlink:href="#linear-gradient-5" /><linearGradient
   id="linear-gradient-13-1"
   x1="18.799999"
   y1="36"
   x2="29.309999"
   y2="36"
   xlink:href="#linear-gradient-5" /><linearGradient
   id="linear-gradient-14-8"
   x1="15.28"
   y1="38"
   x2="25.799999"
   y2="38"
   xlink:href="#linear-gradient-5" /><linearGradient
   id="linear-gradient-15-7"
   x1="11.88"
   y1="40"
   x2="22.4"
   y2="40"
   xlink:href="#linear-gradient-5" /><linearGradient
   id="linear-gradient-16-9"
   x1="25.709999"
   y1="32"
   x2="36.220001"
   y2="32"
   xlink:href="#linear-gradient-5" /><linearGradient
   id="linear-gradient-17-2"
   x1="29.16"
   y1="30"
   x2="39.68"
   y2="30"
   xlink:href="#linear-gradient-5" /><linearGradient
   id="linear-gradient-18-0"
   x1="32.630001"
   y1="28"
   x2="43.139999"
   y2="28"
   xlink:href="#linear-gradient-5" /><linearGradient
   id="linear-gradient-19-2"
   x1="26.68"
   y1="23.92"
   x2="70.32"
   y2="67.559998"
   xlink:href="#linear-gradient" /><linearGradient
   inkscape:collect="always"
   xlink:href="#linear-gradient-20"
   id="linearGradient1054"
   gradientUnits="userSpaceOnUse"
   x1="20.15"
   y1="46"
   x2="77.82"
   y2="46" /><linearGradient
   id="linear-gradient-21-5"
   x1="25.620001"
   y1="43.029999"
   x2="71.980003"
   y2="43.029999"
   xlink:href="#linear-gradient" /><linearGradient
   id="linear-gradient-22-9"
   x1="6.29"
   y1="48.990002"
   x2="7.4899998"
   y2="48.990002"
   xlink:href="#linear-gradient" /><linearGradient
   id="linear-gradient-23-2"
   x1="90.690002"
   y1="50.650002"
   x2="89.5"
   y2="50.650002"
   xlink:href="#linear-gradient" /><linearGradient
   id="linear-gradient-24-2"
   x1="10.53"
   y1="50.700001"
   x2="7.4699998"
   y2="50.700001"
   xlink:href="#linear-gradient" /><linearGradient
   id="linear-gradient-25-8"
   x1="18.629999"
   y1="55.82"
   x2="17.969999"
   y2="55.82"
   xlink:href="#linear-gradient" /><linearGradient
   id="linear-gradient-26-9"
   x1="18.610001"
   y1="61.700001"
   x2="37.490002"
   y2="61.700001"
   xlink:href="#linear-gradient" /><linearGradient
   id="linear-gradient-27-7"
   x1="45.59"
   y1="71.389999"
   x2="44.93"
   y2="71.389999"
   xlink:href="#linear-gradient" /><linearGradient
   id="linear-gradient-28-3"
   x1="52.860001"
   y1="62.110001"
   x2="89.519997"
   y2="62.110001"
   xlink:href="#linear-gradient" /><linearGradient
   id="linear-gradient-29-6"
   x1="45.57"
   y1="72.290001"
   x2="47.209999"
   y2="72.290001"
   xlink:href="#linear-gradient" /><linearGradient
   id="linear-gradient-30-1"
   x1="52.880001"
   y1="73.099998"
   x2="47.200001"
   y2="73.099998"
   xlink:href="#linear-gradient" /><linearGradient
   id="linear-gradient-31-2"
   x1="14.59"
   y1="43.23"
   x2="16.59"
   y2="43.23"
   xlink:href="#linear-gradient-5" /><linearGradient
   id="linear-gradient-32-9"
   x1="17.41"
   y1="41.59"
   x2="19.41"
   y2="41.59"
   xlink:href="#linear-gradient-5" /><linearGradient
   id="linear-gradient-33-3"
   x1="20.23"
   y1="39.950001"
   x2="22.23"
   y2="39.950001"
   xlink:href="#linear-gradient-5" /><linearGradient
   id="linear-gradient-34-1"
   x1="23.049999"
   y1="38.310001"
   x2="25.049999"
   y2="38.310001"
   xlink:href="#linear-gradient-5" /><linearGradient
   id="linear-gradient-35-9"
   x1="71.230003"
   y1="54.689999"
   x2="73.220001"
   y2="54.689999"
   xlink:href="#linear-gradient-5" /><linearGradient
   id="linear-gradient-36-4"
   x1="74.040001"
   y1="53.060001"
   x2="76.040001"
   y2="53.060001"
   xlink:href="#linear-gradient-5" /><linearGradient
   id="linear-gradient-37-7"
   x1="76.860001"
   y1="51.419998"
   x2="78.860001"
   y2="51.419998"
   xlink:href="#linear-gradient-5" /><linearGradient
   id="linear-gradient-38-8"
   x1="79.68"
   y1="49.779999"
   x2="81.68"
   y2="49.779999"
   xlink:href="#linear-gradient-5" /><linearGradient
   id="linear-gradient-39-4"
   x1="25.610001"
   y1="44.259998"
   x2="26.23"
   y2="44.259998"
   xlink:href="#linear-gradient" /><linearGradient
   id="linear-gradient-40-5"
   x1="71.360001"
   y1="45.91"
   x2="71.980003"
   y2="45.91"
   xlink:href="#linear-gradient" /><linearGradient
   id="linear-gradient-41-0"
   x1="55.970001"
   y1="48.799999"
   x2="67.150002"
   y2="55.25"
   xlink:href="#linear-gradient" /><linearGradient
   id="linear-gradient-42-3"
   x1="25.530001"
   y1="44.290001"
   x2="49.509998"
   y2="58.130001"
   xlink:href="#linear-gradient" /><linearGradient
   id="linear-gradient-43-6"
   x1="48.799999"
   y1="57.900002"
   x2="51.759998"
   y2="57.900002"
   xlink:href="#linear-gradient" /><linearGradient
   id="linear-gradient-44-1"
   x1="40.400002"
   y1="42.799999"
   x2="53.099998"
   y2="42.799999"
   xlink:href="#linear-gradient-5" /><linearGradient
   id="linear-gradient-45-0"
   x1="37.290001"
   y1="47.57"
   x2="50.869999"
   y2="47.57"
   xlink:href="#linear-gradient-5" /><linearGradient
   id="linear-gradient-46-6"
   x1="59.73"
   y1="45.610001"
   x2="71.160004"
   y2="45.610001"
   xlink:href="#linear-gradient-5" /><linearGradient
   id="linear-gradient-47-3"
   x1="46.630001"
   y1="46.669998"
   x2="62.630001"
   y2="46.669998"
   xlink:href="#linear-gradient-5" /><linearGradient
   id="linear-gradient-48-2"
   x1="44.950001"
   y1="33.110001"
   x2="56.029999"
   y2="33.110001"
   xlink:href="#linear-gradient-5" /><linearGradient
   id="linear-gradient-49-0"
   x1="51.110001"
   y1="38.509998"
   x2="57.790001"
   y2="38.509998"
   xlink:href="#linear-gradient-5" /><linearGradient
   id="linear-gradient-50-6"
   x1="55.119999"
   y1="38.77"
   x2="63.07"
   y2="38.77"
   xlink:href="#linear-gradient-5" /><linearGradient
   id="linear-gradient-51-1"
   x1="59.43"
   y1="42.099998"
   x2="65.709999"
   y2="42.099998"
   xlink:href="#linear-gradient-5" /><linearGradient
   id="linear-gradient-52-5"
   x1="29.32"
   y1="42.490002"
   x2="35.93"
   y2="42.490002"
   xlink:href="#linear-gradient-5" /><linearGradient
   id="linear-gradient-53-5"
   x1="31.65"
   y1="42.82"
   x2="52.52"
   y2="42.82"
   xlink:href="#linear-gradient-5" /><linearGradient
   id="linear-gradient-54-4"
   x1="33.990002"
   y1="36.360001"
   x2="43.900002"
   y2="36.360001"
   xlink:href="#linear-gradient-5" /><linearGradient
   id="linear-gradient-55-7"
   x1="41.560001"
   y1="35.919998"
   x2="47.75"
   y2="35.919998"
   xlink:href="#linear-gradient-5" /><linearGradient
   id="linear-gradient-56-6"
   x1="28.17"
   y1="43.16"
   x2="30.950001"
   y2="43.16"
   xlink:href="#linear-gradient-5" /><linearGradient
   id="linear-gradient-57-5"
   x1="35.200001"
   y1="49.889999"
   x2="48.830002"
   y2="49.889999"
   xlink:href="#linear-gradient-5" /><linearGradient
   id="linear-gradient-58-6"
   x1="45.02"
   y1="54.27"
   x2="48.75"
   y2="54.27"
   xlink:href="#linear-gradient-5" /><linearGradient
   id="linear-gradient-59-9"
   x1="66.980003"
   y1="41.41"
   x2="49.759998"
   y2="41.41"
   xlink:href="#linear-gradient-20" /><linearGradient
   id="linear-gradient-60-3"
   x1="48.240002"
   y1="30.59"
   x2="31.02"
   y2="30.59"
   xlink:href="#linear-gradient-20" /><linearGradient
   id="linear-gradient-61-7"
   x1="45.52"
   y1="41.900002"
   x2="32.169998"
   y2="41.900002"
   xlink:href="#linear-gradient-20" /><linearGradient
   id="linear-gradient-62-4"
   x1="65.830002"
   y1="30.1"
   x2="52.48"
   y2="30.1"
   xlink:href="#linear-gradient-20" /><linearGradient
   id="linear-gradient-63-5"
   x1="31.49"
   y1="36"
   x2="66.519997"
   y2="36"
   xlink:href="#linear-gradient-20" /><linearGradient
   id="linear-gradient-64-2"
   x1="34.310001"
   y1="36"
   x2="63.689999"
   y2="36"
   xlink:href="#linear-gradient-5" /></defs>
 <g
   id="Layer_x0020_1"
   inkscape:label="Layer 1"
   inkscape:groupmode="layer"><path
   class="fil3"
   d="m 31.443949,403.32629 c -9.7677,-12.9898 1.0795,-24.2587 17.5311,-35.0611 l 25.1528,0.38032 28.549601,26.67049 c -23.743701,2.6693 -52.262601,21.0248 -71.233501,8.01024 z"
   id="path37" /><path
   class="fil4"
   d="m 188.66394,482.31029 c -123.854991,278.276 -24.6792,453.56 148.857,534.51801 84.4489,39.3969 186.615,55.6772 288.657,49.9689 101.882,-5.7 204.09,-33.2977 288.807,-81.66271 187.46496,-107.023 290.54396,-312.799 123.70496,-605.037 l 0.028,-0.0827 c -6.2421,-10.9335 -20.1673,-14.7366 -31.1008,-8.49449 -3.7677,2.15079 -6.6897,5.21575 -8.64327,8.75434 -2.75079,4.27796 -5.0563,7.80709 -6.90355,10.5709 -66.3331,99.2741 -139.256,156.59405 -218.362,173.76305 -73.917,16.0429 -154.716,-2.7248 -242.00204,-54.83045 24.1961,-19.6028 44.6575,-43.6418 60.14064,-70.8804 20.7071,-36.4276 32.5347,-78.476 32.5347,-123.193 0,-68.9634 -27.9555,-131.402 -73.15284,-176.601 -45.1973,-45.1961 -107.637,-73.1516 -176.601,-73.1516 -59.4237,0 -114.07,20.8441 -157.042,55.6406 -41.8617,33.8977 -72.5409,81.1111 -85.6452,135.228 l 14.792,161.138 c 5.5985,12.4323 12.2209,24.3768 19.7646,35.7296 6.6909,10.0689 14.1059,19.6335 22.1669,28.6217 z"
   id="path39"
   style="fill:#ffdb01;fill-opacity:1" /><path
   class="fil5"
   d="m 4.6939484,276.05929 c -1.7575,-4.58859 5.7011996,-6.83268 11.0374006,-1.37835 33.8221,34.5803 84.469001,18.0555 116.209991,-17.8595 18.6508,12.8882 12.4488,51.4453 20.048,74.2418 22.715,19.3205 48.7264,77.693 -6.4701,73.6595 C 35.960249,396.7184 -7.7747512,348.72074 4.6942484,276.05974 Z"
   id="path41" /><ellipse
   class="fil6"
   transform="matrix(-0.90703762,-0.42104959,-0.42104959,0.90703762,0,0)"
   rx="33.767773"
   ry="55.856518"
   id="ellipse43"
   cx="-321.32303"
   cy="116.27575"
   style="stroke-width:0.929788" /><ellipse
   class="fil7"
   transform="matrix(-0.93852061,-0.34522321,-0.34522321,0.93852061,0,0)"
   rx="17.29772"
   ry="28.612822"
   id="ellipse45"
   cx="-302.01434"
   cy="154.16913"
   style="stroke-width:0.476289" />
  <metadata
   id="CorelCorpID_0Corel-Layer" />


  <path
   class="fil2"
   d="m 1024,-0.0011811 c 565.539,0 1024,458.4620011 1024,1023.9999811 0,565.539 -458.462,1024 -1024,1024 -565.539,0 -1024,-458.462 -1024,-1024 C 0,458.45982 458.462,-0.0011811 1024,-0.0011811 Z"
   id="path35" />






 <g
   id="Layer_8"
   data-name="Layer 8"
   transform="matrix(-5.9118637,3.4132161,3.4132161,5.9118637,991.30635,377.64016)"><path
     class="cls-1"
     d="m 18.59,50.67 v 6.52 A 2,2 0 0 0 17.41,55.54 6.34,6.34 0 0 0 12.78,55.1 3.05,3.05 0 0 1 10.54,54.84 v -6.52 a 3.09,3.09 0 0 0 2.25,0.26 6.31,6.31 0 0 1 4.61,0.42 2,2 0 0 1 1.19,1.67 z"
     id="path82"
     style="fill:url(#linearGradient1050)" /><path
     class="cls-2"
     d="m 45.54,66.23 v 6.52 A 2,2 0 0 0 44.36,71.1 6.28,6.28 0 0 0 39.75,70.67 3.11,3.11 0 0 1 37.49,70.4 v -6.52 a 3.13,3.13 0 0 0 2.25,0.27 6.31,6.31 0 0 1 4.62,0.43 2,2 0 0 1 1.18,1.65 z"
     id="path84"
     style="fill:url(#linear-gradient-2-9)" /><path
     class="cls-3"
     d="m 80.42,40.17 v 6.52 a 0.66,0.66 0 0 1 -0.17,0.44 1.59,1.59 0 0 0 -0.42,1 v -6.52 a 1.57,1.57 0 0 1 0.42,-1 0.72,0.72 0 0 0 0.17,-0.44 z"
     id="path86"
     style="fill:url(#linear-gradient-3-1)" /><path
     class="cls-4"
     d="m 53.46,24.6 v 6.52 a 0.61,0.61 0 0 1 -0.18,0.44 1.63,1.63 0 0 0 -0.41,1 v -6.52 a 1.63,1.63 0 0 1 0.41,-1 0.68,0.68 0 0 0 0.18,-0.44 z"
     id="path88"
     style="fill:url(#linear-gradient-4-2)" /><path
     class="cls-5"
     d="M 76.46,66.05 68,61.13 a 1.56,1.56 0 0 0 -1.41,0 c -0.39,0.23 -0.39,0.59 0,0.82 l 8.51,4.92 a 1.59,1.59 0 0 0 1.41,0 0.43,0.43 0 0 0 0,-0.82"
     id="path90"
     style="fill:url(#linearGradient1052)" /><path
     class="cls-6"
     d="m 73,68.05 -8.5,-4.92 a 1.53,1.53 0 0 0 -1.41,0 c -0.4,0.23 -0.39,0.59 0,0.82 l 8.52,4.91 a 1.53,1.53 0 0 0 1.41,0 0.43,0.43 0 0 0 0,-0.81"
     id="path92"
     style="fill:url(#linear-gradient-6-9)" /><path
     class="cls-7"
     d="M 69.5,70 61,65.13 a 1.55,1.55 0 0 0 -1.42,0 0.44,0.44 0 0 0 0,0.82 l 8.51,4.92 a 1.61,1.61 0 0 0 1.42,0 0.44,0.44 0 0 0 0,-0.83"
     id="path94"
     style="fill:url(#linear-gradient-7-3)" /><path
     class="cls-8"
     d="m 66.1,72.05 -8.51,-4.91 a 1.55,1.55 0 0 0 -1.42,0 0.43,0.43 0 0 0 0,0.81 l 8.51,4.92 a 1.56,1.56 0 0 0 1.41,0 0.43,0.43 0 0 0 0,-0.82"
     id="path96"
     style="fill:url(#linear-gradient-8-6)" /><path
     class="cls-9"
     d="m 79.93,64.05 -8.51,-4.91 a 1.58,1.58 0 0 0 -1.42,0 0.44,0.44 0 0 0 0,0.86 l 8.51,4.91 a 1.59,1.59 0 0 0 1.41,0 0.43,0.43 0 0 0 0,-0.82"
     id="path98"
     style="fill:url(#linear-gradient-9-0)" /><path
     class="cls-10"
     d="m 83.38,62.05 -8.51,-4.91 a 1.55,1.55 0 0 0 -1.42,0 0.43,0.43 0 0 0 0,0.81 L 82,62.87 a 1.53,1.53 0 0 0 1.41,0 c 0.39,-0.23 0.38,-0.59 0,-0.82"
     id="path100"
     style="fill:url(#linear-gradient-10-6)" /><path
     class="cls-11"
     d="m 86.85,60.05 -8.51,-4.92 a 1.56,1.56 0 0 0 -1.41,0 c -0.39,0.23 -0.4,0.6 0,0.82 l 8.51,4.92 a 1.58,1.58 0 0 0 1.42,0 0.43,0.43 0 0 0 0,-0.81"
     id="path102"
     style="fill:url(#linear-gradient-11-2)" /><path
     class="cls-12"
     d="M 32.46,36.05 24,31.14 a 1.53,1.53 0 0 0 -1.41,0 0.43,0.43 0 0 0 0,0.81 l 8.51,4.92 a 1.58,1.58 0 0 0 1.42,0 c 0.39,-0.23 0.39,-0.59 0,-0.82"
     id="path104"
     style="fill:url(#linear-gradient-12-6)" /><path
     class="cls-13"
     d="m 29,38.05 -8.5,-4.91 a 1.58,1.58 0 0 0 -1.42,0 0.43,0.43 0 0 0 0,0.82 l 8.51,4.92 a 1.59,1.59 0 0 0 1.41,0 0.43,0.43 0 0 0 0,-0.82"
     id="path106"
     style="fill:url(#linear-gradient-13-1)" /><path
     class="cls-14"
     d="M 25.5,40.05 17,35.13 a 1.61,1.61 0 0 0 -1.42,0 c -0.39,0.23 -0.38,0.59 0,0.82 l 8.52,4.92 a 1.59,1.59 0 0 0 1.41,0 0.43,0.43 0 0 0 0,-0.82"
     id="path108"
     style="fill:url(#linear-gradient-14-8)" /><path
     class="cls-15"
     d="m 22.1,42 -8.51,-4.91 a 1.59,1.59 0 0 0 -1.41,0 c -0.4,0.23 -0.4,0.6 0,0.82 l 8.51,4.92 a 1.57,1.57 0 0 0 1.43,0 0.44,0.44 0 0 0 0,-0.83"
     id="path110"
     style="fill:url(#linear-gradient-15-7)" /><path
     class="cls-16"
     d="m 35.93,34.05 -8.51,-4.92 a 1.55,1.55 0 0 0 -1.42,0 c -0.39,0.22 -0.39,0.59 0,0.81 l 8.51,4.92 a 1.59,1.59 0 0 0 1.41,0 0.43,0.43 0 0 0 0,-0.82"
     id="path112"
     style="fill:url(#linear-gradient-16-9)" /><path
     class="cls-17"
     d="m 39.38,32.05 -8.51,-4.92 a 1.55,1.55 0 0 0 -1.42,0 c -0.39,0.23 -0.38,0.59 0,0.82 L 38,32.86 a 1.55,1.55 0 0 0 1.42,0 0.43,0.43 0 0 0 0,-0.81"
     id="path114"
     style="fill:url(#linear-gradient-17-2)" /><path
     class="cls-18"
     d="m 42.85,30.05 -8.51,-4.92 a 1.56,1.56 0 0 0 -1.41,0 c -0.39,0.23 -0.4,0.59 0,0.82 l 8.51,4.92 a 1.59,1.59 0 0 0 1.41,0 0.43,0.43 0 0 0 0,-0.82"
     id="path116"
     style="fill:url(#linear-gradient-18-0)" /><path
     class="cls-19"
     d="m 89.5,44.92 c 1.57,0.91 1.58,2.37 0,3.28 L 52.88,69.5 a 6.29,6.29 0 0 1 -5.67,0 L 45.59,68.56 C 45,68.22 44.75,67.69 45.13,67.25 c 0.74,-0.87 0.48,-2 -0.77,-2.67 A 6.31,6.31 0 0 0 39.74,64.15 3.13,3.13 0 0 1 37.49,63.88 L 18.63,53 c -0.59,-0.34 -0.83,-0.87 -0.46,-1.3 0.75,-0.87 0.49,-1.95 -0.77,-2.67 a 6.31,6.31 0 0 0 -4.62,-0.44 3.09,3.09 0 0 1 -2.25,-0.26 l -3,-1.76 C 5.96,45.66 5.95,44.2 7.53,43.29 L 44.11,22 a 6.29,6.29 0 0 1 5.67,0 l 3,1.76 c 0.59,0.34 0.84,0.87 0.46,1.3 -0.74,0.87 -0.48,2 0.77,2.68 a 6.31,6.31 0 0 0 4.62,0.43 3.08,3.08 0 0 1 2.25,0.27 l 18.9,10.87 c 0.59,0.34 0.83,0.87 0.47,1.3 -0.75,0.87 -0.5,2 0.76,2.67 a 6.31,6.31 0 0 0 4.62,0.44 3.09,3.09 0 0 1 2.25,0.26 z"
     id="path118"
     style="fill:url(#linear-gradient-19-2)" /><path
     class="cls-20"
     d="M 77.21,46 49,29.66 a 3.2,3.2 0 0 0 -3,0 L 20.75,44.33 a 0.91,0.91 0 0 0 0,1.71 L 49,62.35 a 3.26,3.26 0 0 0 2.95,0 L 77.21,47.68 a 0.9,0.9 0 0 0 0,-1.71"
     id="path120"
     style="fill:url(#linearGradient1054)" /><path
     class="cls-21"
     d="m 71.36,43 a 0.9,0.9 0 0 1 0,1.71 L 51.76,56.1 a 3.26,3.26 0 0 1 -2.95,0 l -22.58,-13 a 0.91,0.91 0 0 1 0,-1.71 L 45.83,30 a 3.2,3.2 0 0 1 3,0 z"
     id="path122"
     style="fill:url(#linear-gradient-21-5)" /><path
     class="cls-22"
     d="M 66.62,40.25 48.78,30 a 3.2,3.2 0 0 0 -3,0 L 28.61,40 a 5.53,5.53 0 0 0 1.45,1.21 l 14.06,8.12 a 7,7 0 0 0 3.48,0.89 6.88,6.88 0 0 0 3.48,-0.9 z"
     id="path124" /><path
     class="cls-23"
     d="m 6.29,51.43 v -6.52 a 2,2 0 0 0 1.18,1.65 v 6.52 A 2,2 0 0 1 6.29,51.43 Z"
     id="path126"
     style="fill:url(#linear-gradient-22-9)" /><path
     class="cls-24"
     d="m 90.69,46.57 v 6.52 a 2,2 0 0 1 -1.17,1.63 V 48.2 a 2,2 0 0 0 1.17,-1.63 z"
     id="path128"
     style="fill:url(#linear-gradient-23-2)" /><polygon
     class="cls-25"
     points="7.47,53.08 7.49,46.56 10.53,48.32 10.52,54.84 "
     id="polygon130"
     style="fill:url(#linear-gradient-24-2)" /><path
     class="cls-26"
     d="m 18,58.66 v -6.53 a 1.08,1.08 0 0 0 0.64,0.86 v 6.52 A 1.08,1.08 0 0 1 18,58.66 Z"
     id="path132"
     style="fill:url(#linear-gradient-25-8)" /><polygon
     class="cls-27"
     points="18.61,59.51 18.63,52.99 37.49,63.88 37.47,70.4 "
     id="polygon134"
     style="fill:url(#linear-gradient-26-9)" /><path
     class="cls-28"
     d="m 44.93,74.22 v -6.53 a 1.09,1.09 0 0 0 0.64,0.87 v 6.52 a 1.09,1.09 0 0 1 -0.64,-0.86 z"
     id="path136"
     style="fill:url(#linear-gradient-27-7)" /><polygon
     class="cls-29"
     points="52.86,76.02 52.88,69.5 89.52,48.2 89.5,54.72 "
     id="polygon138"
     style="fill:url(#linear-gradient-28-3)" /><polygon
     class="cls-30"
     points="45.57,75.08 45.59,68.56 47.21,69.5 47.2,76.02 "
     id="polygon140"
     style="fill:url(#linear-gradient-29-6)" /><path
     class="cls-31"
     d="m 52.88,69.5 v 6.52 a 6.27,6.27 0 0 1 -5.66,0 V 69.5 a 6.29,6.29 0 0 0 5.66,0 z"
     id="path142"
     style="fill:url(#linear-gradient-30-1)" /><path
     class="cls-32"
     d="m 16.3,42.82 a 1.55,1.55 0 0 0 -1.42,0 c -0.38,0.22 -0.38,0.59 0,0.82 a 1.59,1.59 0 0 0 1.41,0 0.43,0.43 0 0 0 0,-0.82"
     id="path144"
     style="fill:url(#linear-gradient-31-2)" /><path
     class="cls-33"
     d="m 19.12,41.18 a 1.55,1.55 0 0 0 -1.42,0 0.43,0.43 0 0 0 0,0.82 1.58,1.58 0 0 0 1.42,0 0.43,0.43 0 0 0 0,-0.82"
     id="path146"
     style="fill:url(#linear-gradient-32-9)" /><path
     class="cls-34"
     d="m 21.93,39.54 a 1.59,1.59 0 0 0 -1.41,0 c -0.38,0.22 -0.38,0.59 0,0.82 a 1.56,1.56 0 0 0 1.41,0 c 0.39,-0.23 0.39,-0.59 0,-0.82"
     id="path148"
     style="fill:url(#linear-gradient-33-3)" /><path
     class="cls-35"
     d="m 24.75,37.9 a 1.56,1.56 0 0 0 -1.41,0 0.43,0.43 0 0 0 0,0.82 1.55,1.55 0 0 0 1.42,0 c 0.39,-0.23 0.39,-0.59 0,-0.82"
     id="path150"
     style="fill:url(#linear-gradient-34-1)" /><path
     class="cls-36"
     d="m 72.93,54.28 a 1.59,1.59 0 0 0 -1.41,0 0.43,0.43 0 0 0 0,0.82 1.53,1.53 0 0 0 1.41,0 0.43,0.43 0 0 0 0,-0.82"
     id="path152"
     style="fill:url(#linear-gradient-35-9)" /><path
     class="cls-37"
     d="m 75.75,52.65 a 1.55,1.55 0 0 0 -1.42,0 c -0.38,0.22 -0.38,0.59 0,0.82 a 1.59,1.59 0 0 0 1.41,0 0.43,0.43 0 0 0 0,-0.82"
     id="path154"
     style="fill:url(#linear-gradient-36-4)" /><path
     class="cls-38"
     d="m 78.57,51 a 1.53,1.53 0 0 0 -1.41,0 c -0.4,0.23 -0.39,0.59 0,0.82 a 1.59,1.59 0 0 0 1.41,0 0.43,0.43 0 0 0 0,-0.82"
     id="path156"
     style="fill:url(#linear-gradient-37-7)" /><path
     class="cls-39"
     d="m 81.38,49.37 a 1.56,1.56 0 0 0 -1.41,0 c -0.39,0.23 -0.38,0.59 0,0.82 a 1.56,1.56 0 0 0 1.41,0 c 0.39,-0.23 0.39,-0.59 0,-0.82"
     id="path158"
     style="fill:url(#linear-gradient-38-8)" /><path
     class="cls-40"
     d="M 25.61,45.46 V 42.2 a 1,1 0 0 0 0.61,0.86 v 3.26 a 1,1 0 0 1 -0.61,-0.86 z"
     id="path160"
     style="fill:url(#linear-gradient-39-4)" /><path
     class="cls-41"
     d="m 72,43.85 v 3.26 a 1,1 0 0 1 -0.61,0.85 V 44.7 A 1,1 0 0 0 72,43.85 Z"
     id="path162"
     style="fill:url(#linear-gradient-40-5)" /><polygon
     class="cls-42"
     points="51.75,59.36 51.76,56.09 71.37,44.7 71.36,47.96 "
     id="polygon164"
     style="fill:url(#linear-gradient-41-0)" /><polygon
     class="cls-43"
     points="26.23,46.32 26.23,43.06 48.81,56.09 48.8,59.36 "
     id="polygon166"
     style="fill:url(#linear-gradient-42-3)" /><path
     class="cls-44"
     d="m 51.76,56.1 v 3.26 a 3.26,3.26 0 0 1 -3,0 V 56.1 a 3.26,3.26 0 0 0 3,0 z"
     id="path168"
     style="fill:url(#linear-gradient-43-6)" /><path
     class="cls-45"
     d="m 51,44.78 c -0.24,-0.14 -0.26,-0.36 -0.05,-0.49 a 0.94,0.94 0 0 1 0.83,0 c 0.24,0.14 0.26,0.36 0.05,0.48 a 0.9,0.9 0 0 1 -0.83,0 m 1.56,-0.91 a 2.89,2.89 0 0 0 -2,-0.26 L 48.7,42.52 a 4.67,4.67 0 0 0 -1.19,-0.45 l -4,-0.89 A 2.69,2.69 0 0 1 42.8,40.92 l -1.35,-0.78 a 0.9,0.9 0 0 0 -0.83,0 c -0.21,0.13 -0.19,0.34 0.06,0.48 l 1.34,0.78 a 4.24,4.24 0 0 0 1.18,0.44 l 4,0.89 A 3.07,3.07 0 0 1 47.92,43 l 1.86,1.08 c -0.27,0.37 -0.12,0.84 0.46,1.17 a 2.74,2.74 0 0 0 2.49,0.08 c 0.64,-0.37 0.58,-1 -0.15,-1.44"
     id="path170"
     style="fill:url(#linear-gradient-44-1)" /><path
     class="cls-46"
     d="m 38.66,45.8 c -0.24,-0.14 -0.26,-0.36 0,-0.48 a 0.94,0.94 0 0 1 0.83,0 c 0.24,0.14 0.26,0.35 0.05,0.48 a 0.94,0.94 0 0 1 -0.83,0 m 12,4.23 -4.74,-2.74 a 4.37,4.37 0 0 0 -1.54,-0.51 l -3.32,-0.49 -0.39,-0.23 c 0.27,-0.36 0.11,-0.83 -0.46,-1.17 a 2.79,2.79 0 0 0 -2.5,-0.08 c -0.64,0.37 -0.57,1 0.16,1.44 a 2.9,2.9 0 0 0 2,0.27 l 0.52,0.3 a 0.94,0.94 0 0 0 0.31,0.1 l 3.49,0.51 a 2.62,2.62 0 0 1 0.93,0.31 l 4.75,2.74 a 0.9,0.9 0 0 0 0.83,0 C 50.96,50.36 50.94,50.14 50.69,50"
     id="path172"
     style="fill:url(#linear-gradient-45-0)" /><path
     class="cls-47"
     d="m 61.11,47 c -0.25,-0.14 -0.27,-0.36 0,-0.48 a 0.94,0.94 0 0 1 0.83,0 c 0.24,0.14 0.25,0.35 0,0.47 a 0.88,0.88 0 0 1 -0.82,0 m 10,-2.31 L 69.87,44 a 4.56,4.56 0 0 0 -4.14,-0.13 l -3.57,2.07 a 2.66,2.66 0 0 0 -2,0.13 c -0.65,0.38 -0.58,1 0.15,1.44 a 2.72,2.72 0 0 0 2.48,0.08 0.68,0.68 0 0 0 0.21,-1.17 l 3.57,-2.08 a 2.76,2.76 0 0 1 2.5,0.08 l 1.32,0.76 0.52,-0.3 a 2.09,2.09 0 0 0 0.22,-0.16"
     id="path174"
     style="fill:url(#linear-gradient-46-6)" /><path
     class="cls-48"
     d="M 51.86,53.42 C 51.61,53.28 51.59,53.06 51.8,52.94 a 1,1 0 0 1 0.84,0 c 0.24,0.14 0.26,0.35 0,0.48 a 0.91,0.91 0 0 1 -0.82,0 M 48,40.37 c -0.24,-0.14 -0.26,-0.36 0,-0.48 a 0.88,0.88 0 0 1 0.82,0 c 0.25,0.14 0.27,0.35 0.06,0.48 a 1,1 0 0 1 -0.84,0 m 1.56,-0.91 a 2.77,2.77 0 0 0 -2.49,-0.08 c -0.64,0.37 -0.57,1 0.16,1.44 a 2.93,2.93 0 0 0 2,0.27 l 5.27,3 a 1.25,1.25 0 0 1 0.54,0.53 l 0.71,1.62 a 2.14,2.14 0 0 0 0.9,0.89 l 0.79,0.45 -1.3,0.76 a 1.22,1.22 0 0 0 -0.73,1.17 l 0.08,0.8 a 0.76,0.76 0 0 1 -0.44,0.7 L 52.9,52.3 a 2.64,2.64 0 0 0 -2,0.14 c -0.64,0.37 -0.58,1 0.15,1.43 a 2.75,2.75 0 0 0 2.48,0.09 0.69,0.69 0 0 0 0.22,-1.15 l 2.16,-1.25 a 1.22,1.22 0 0 0 0.73,-1.17 l -0.09,-0.8 A 0.76,0.76 0 0 1 57,48.89 l 1.3,-0.76 3.52,2 0.78,-0.45 -5.19,-3 a 1.19,1.19 0 0 1 -0.53,-0.54 l -0.73,-1.61 a 2.07,2.07 0 0 0 -0.89,-0.9 l -5.27,-3 c 0.28,-0.37 0.12,-0.83 -0.46,-1.17"
     id="path176"
     style="fill:url(#linear-gradient-47-3)" /><path
     class="cls-49"
     d="m 46.32,32.18 c -0.24,-0.14 -0.27,-0.36 0,-0.48 a 0.9,0.9 0 0 1 0.83,0 c 0.24,0.14 0.26,0.36 0,0.49 a 0.94,0.94 0 0 1 -0.83,0 m 9.71,2 -0.87,-0.5 -1.16,0.66 a 2.78,2.78 0 0 1 -2.49,-0.09 l -3.16,-1.82 c 0.27,-0.37 0.11,-0.84 -0.46,-1.17 A 2.74,2.74 0 0 0 45.4,31.19 c -0.64,0.37 -0.58,1 0.15,1.44 a 2.89,2.89 0 0 0 2,0.26 l 3.16,1.83 a 4.56,4.56 0 0 0 4.14,0.13 L 56,34.17"
     id="path178"
     style="fill:url(#linear-gradient-48-2)" /><path
     class="cls-50"
     d="M 54.74,41.55 C 54.5,41.41 54.47,41.2 54.69,41.07 a 0.94,0.94 0 0 1 0.83,0 c 0.25,0.14 0.27,0.35 0,0.48 a 0.94,0.94 0 0 1 -0.83,0 m 3,-6.36 -0.88,-0.51 -5.06,2.94 c -1.08,0.63 -1,1.71 0.26,2.41 l 1.39,0.8 c -0.26,0.37 -0.11,0.85 0.46,1.17 a 2.78,2.78 0 0 0 2.49,0.09 c 0.65,-0.38 0.57,-1 -0.15,-1.44 a 3,3 0 0 0 -2,-0.27 L 52.81,39.57 C 52.08,39.15 52,38.51 52.65,38.13 l 5.06,-2.94"
     id="path180"
     style="fill:url(#linear-gradient-49-0)" /><path
     class="cls-51"
     d="m 63.07,38.24 -0.88,-0.51 -1.48,0.86 a 2.13,2.13 0 0 1 -0.87,0.25 L 56.75,39.1 56.1,38.73 a 0.9,0.9 0 0 0 -0.83,0 c -0.21,0.12 -0.19,0.34 0,0.48 l 0.88,0.5 a 1,1 0 0 0 0.54,0.12 l 3.41,-0.29 a 3.63,3.63 0 0 0 1.45,-0.41 l 1.47,-0.86"
     id="path182"
     style="fill:url(#linear-gradient-50-6)" /><path
     class="cls-52"
     d="m 60.8,44.15 c -0.24,-0.15 -0.27,-0.36 0,-0.48 a 0.91,0.91 0 0 1 0.83,0 c 0.24,0.14 0.27,0.35 0.05,0.47 a 0.9,0.9 0 0 1 -0.83,0 m 4.91,-4.39 -0.87,-0.5 -2.26,1.31 A 1.45,1.45 0 0 0 61.91,41.4 L 61.49,43 a 2.48,2.48 0 0 0 -1.62,0.21 c -0.65,0.37 -0.58,1 0.15,1.44 a 2.74,2.74 0 0 0 2.49,0.08 0.71,0.71 0 0 0 0.08,-1.28 L 63,41.58 a 0.85,0.85 0 0 1 0.42,-0.51 l 2.26,-1.31"
     id="path184"
     style="fill:url(#linear-gradient-51-1)" /><path
     class="cls-53"
     d="m 32.81,45.13 c -0.25,-0.14 -0.27,-0.36 -0.06,-0.48 a 0.9,0.9 0 0 1 0.83,0 c 0.24,0.14 0.27,0.35 0.05,0.48 a 0.91,0.91 0 0 1 -0.82,0 m 2.13,-3.29 -4.84,-2.79 -0.78,0.45 4.84,2.8 c 0.73,0.42 0.79,1.07 0.15,1.44 l -0.46,0.27 a 2.67,2.67 0 0 0 -2,0.13 c -0.64,0.37 -0.57,1 0.16,1.44 a 2.74,2.74 0 0 0 2.49,0.08 0.68,0.68 0 0 0 0.21,-1.14 l 0.46,-0.27 c 1.08,-0.62 1,-1.7 -0.25,-2.41"
     id="path186"
     style="fill:url(#linear-gradient-52-5)" /><path
     class="cls-54"
     d="M 50.38,47.15 C 50.13,47.01 50.11,46.8 50.32,46.67 a 0.93,0.93 0 0 1 0.84,0 c 0.24,0.14 0.26,0.35 0,0.48 a 0.91,0.91 0 0 1 -0.82,0 m 1.55,-0.9 a 2.82,2.82 0 0 0 -2,-0.27 l -3.63,-2.09 a 4.32,4.32 0 0 0 -1.19,-0.45 l -4,-0.89 a 2.5,2.5 0 0 1 -0.71,-0.27 l -8,-4.59 -0.78,0.46 8,4.59 a 4.2,4.2 0 0 0 1.19,0.44 l 4,0.89 a 2.45,2.45 0 0 1 0.72,0.27 l 3.63,2.09 C 48.84,46.8 49,47.27 49.58,47.6 a 2.72,2.72 0 0 0 2.48,0.08 c 0.65,-0.37 0.58,-1 -0.15,-1.43"
     id="path188"
     style="fill:url(#linear-gradient-53-5)" /><path
     class="cls-55"
     d="m 41.75,35.85 c -0.25,-0.14 -0.27,-0.35 0,-0.48 a 0.94,0.94 0 0 1 0.83,0 c 0.24,0.14 0.26,0.36 0,0.48 a 0.91,0.91 0 0 1 -0.83,0 m 1.56,-0.9 A 2.78,2.78 0 0 0 40.82,34.86 0.69,0.69 0 0 0 40.6,36 l -2,1.17 a 2.76,2.76 0 0 1 -2.5,-0.08 l -1.32,-0.76 -0.78,0.45 1.33,0.76 a 4.58,4.58 0 0 0 4.15,0.14 l 2,-1.17 a 2.72,2.72 0 0 0 2,-0.13 c 0.64,-0.38 0.58,-1 -0.15,-1.44"
     id="path190"
     style="fill:url(#linear-gradient-54-4)" /><path
     class="cls-56"
     d="m 42.93,39.24 c -0.24,-0.14 -0.27,-0.35 0,-0.48 a 0.94,0.94 0 0 1 0.83,0 c 0.24,0.14 0.26,0.36 0,0.48 a 0.9,0.9 0 0 1 -0.83,0 m 3.74,-5.06 -4.11,-2.37 -0.78,0.45 4.11,2.38 a 1,1 0 0 1 0.59,0.74 l 0.09,0.79 a 0.74,0.74 0 0 1 -0.44,0.7 L 44,38.13 a 2.64,2.64 0 0 0 -2,0.12 c -0.64,0.38 -0.58,1 0.15,1.45 a 2.77,2.77 0 0 0 2.49,0.08 0.69,0.69 0 0 0 0.22,-1.15 L 47,37.38 a 1.22,1.22 0 0 0 0.73,-1.17 l -0.08,-0.79 a 1.76,1.76 0 0 0 -1,-1.24"
     id="path192"
     style="fill:url(#linear-gradient-55-7)" /><path
     class="cls-57"
     d="m 30,41.68 a 0.94,0.94 0 0 0 -0.83,0 c -0.21,0.13 -0.19,0.35 0.05,0.49 0.73,0.42 0.8,1.06 0.16,1.44 l -1.17,0.68 0.87,0.5 1.17,-0.68 c 1.08,-0.62 1,-1.7 -0.25,-2.4"
     id="path194"
     style="fill:url(#linear-gradient-56-6)" /><path
     class="cls-58"
     d="m 46.68,51.33 c -0.25,-0.14 -0.27,-0.35 0,-0.48 a 0.94,0.94 0 0 1 0.83,0 c 0.24,0.14 0.26,0.36 0,0.48 a 0.94,0.94 0 0 1 -0.83,0 m 1.56,-0.9 a 3,3 0 0 0 -2,-0.27 l -0.52,-0.29 a 0.82,0.82 0 0 0 -0.31,-0.11 l -3.5,-0.51 a 2.63,2.63 0 0 1 -0.92,-0.31 l -1.23,-0.71 a 4.61,4.61 0 0 0 -4.15,-0.14 l -0.39,0.23 0.89,0.51 0.38,-0.23 a 2.79,2.79 0 0 1 2.5,0.08 l 1.22,0.71 a 4.57,4.57 0 0 0 1.55,0.52 l 3.32,0.49 0.38,0.22 c -0.27,0.37 -0.11,0.84 0.46,1.17 a 2.77,2.77 0 0 0 2.49,0.08 c 0.64,-0.37 0.58,-1 -0.15,-1.44"
     id="path196"
     style="fill:url(#linear-gradient-57-5)" /><path
     class="cls-59"
     d="m 47.77,53.76 -1.77,-1 a 0.88,0.88 0 0 0 -0.83,0 c -0.22,0.12 -0.19,0.34 0,0.48 l 1.77,1 c 0.56,0.32 0.72,0.8 0.45,1.16 l 0.92,0.53 c 0.68,-0.63 0.47,-1.54 -0.59,-2.15"
     id="path198"
     style="fill:url(#linear-gradient-58-6)" /><path
     class="cls-60"
     d="m 66.68,37.23 -1.41,-0.82 -15.51,9 1.42,0.82 a 1.53,1.53 0 0 0 1.41,0 l 3.53,-2.05 a 0.43,0.43 0 0 0 0,-0.82 0.43,0.43 0 0 1 0,-0.82 l 4.23,-2.45 a 1.55,1.55 0 0 1 1.42,0 1.59,1.59 0 0 0 1.41,0 l 3.52,-2.05 c 0.39,-0.23 0.38,-0.59 0,-0.82"
     id="path200"
     style="fill:url(#linear-gradient-59-9)" /><path
     class="cls-61"
     d="m 48.24,26.58 -1.42,-0.82 a 1.59,1.59 0 0 0 -1.41,0 l -3.52,2 c -0.4,0.23 -0.39,0.59 0,0.82 a 0.44,0.44 0 0 1 0,0.82 l -4.22,2.5 a 1.55,1.55 0 0 1 -1.42,0 1.59,1.59 0 0 0 -1.41,0 L 31.31,34 a 0.43,0.43 0 0 0 0,0.82 l 1.42,0.82 15.5,-9"
     id="path202"
     style="fill:url(#linear-gradient-60-3)" /><path
     class="cls-62"
     d="M 45.52,45.42 32.75,38.05 a 0.87,0.87 0 0 0 0,1.64 l 9.93,5.73 a 3.1,3.1 0 0 0 2.83,0"
     id="path204"
     style="fill:url(#linear-gradient-61-7)" /><path
     class="cls-63"
     d="m 65.24,32.31 -9.92,-5.73 a 3.16,3.16 0 0 0 -2.84,0 L 65.25,34 c 0.78,-0.45 0.78,-1.18 0,-1.64"
     id="path206"
     style="fill:url(#linear-gradient-62-4)" /><path
     class="cls-64"
     d="M 65.9,34.33 65.25,34 52.48,26.58 51.84,26.21 a 3.2,3.2 0 0 0 -3,0 l -0.65,0.37 -15.5,9 L 32.1,36 a 0.9,0.9 0 0 0 0,1.71 l 0.64,0.38 12.77,7.37 0.65,0.37 a 3.2,3.2 0 0 0 2.95,0 l 0.64,-0.37 15.51,-9 0.64,-0.37 a 0.9,0.9 0 0 0 0,-1.76 z"
     id="path208"
     style="fill:url(#linear-gradient-63-5)" /><path
     class="cls-65"
     d="M 63.08,34.33 51.85,27.84 a 3.26,3.26 0 0 0 -3,0 L 34.92,36 a 0.9,0.9 0 0 0 0,1.71 l 11.23,6.49 a 3.23,3.23 0 0 0 3,0 l 14,-8.12 a 0.9,0.9 0 0 0 0,-1.7"
     id="path210"
     style="fill:url(#linear-gradient-64-2)" /></g><path
   class="fil8"
   d="m 778.53394,779.49929 c 82.1446,-16.8095 126.464,-62.5808 144.951,-128.13 -94.6902,44.0882 -187.471,25.1351 -358.539,-51.3697 -163.084,-37.2473 -310.134,89.4426 -224.756,248.652 127.74,162.18401 378.385,129.486 522.089,-2.1567 l -98.6434,2.0634 c 67.0642,-7.1102 108.908,-34.037 134.143,-74.0103 -41.7071,10.9536 -81.5138,12.8929 -119.244,4.9512 z"
   id="path47"
   style="fill:#ffc60c;fill-opacity:1" /></g><g
   inkscape:groupmode="layer"
   id="layer1"
   inkscape:label="Layer 2"><g
     id="layer_1-2"
     data-name="layer 1"
     transform="matrix(6.0606826,0,0,6.0606826,643.95117,15.923729)"><rect
       class="cls-1"
       x="8.3798847"
       y="33.586475"
       width="2.9808071"
       height="2.9808071"
       id="rect12"
       style="fill:#ff2a2a;fill-opacity:1;stroke:#ff2a2a;stroke-width:1.4904;stroke-opacity:1" /><path
       class="cls-1"
       d="M 11.360692,29.13018 H 8.3798864 V 26.492166 A 7.6159618,7.6159618 0 0 1 12.478494,19.591598 5.9616139,5.9616139 0 0 0 15.831902,14.226145 6.0361341,6.0361341 0 0 0 9.8702894,8.2645307 5.9616139,5.9616139 0 0 0 3.9086754,14.226145 H 0.92786833 a 8.9424209,8.9424209 0 0 1 8.94242107,-8.9424213 9.0616532,9.0616532 0 0 1 8.9424196,8.9424213 8.9424209,8.9424209 0 0 1 -5.02266,8.033275 4.6649629,4.6649629 0 0 0 -2.429357,4.232746 z"
       id="path14"
       style="fill:#ff2a2a;fill-opacity:1;stroke:#ff2a2a;stroke-width:1.76966;stroke-miterlimit:4;stroke-dasharray:none;stroke-opacity:1" /><g
       id="layer_1-2-3"
       data-name="layer 1"
       transform="rotate(54.55608,-50.313846,21.387677)"
       style="clip-rule:evenodd;fill-rule:evenodd;image-rendering:optimizeQuality;shape-rendering:geometricPrecision;text-rendering:geometricPrecision"><path
         style="fill:none;stroke:#000000;stroke-width:2.535;stroke-linecap:butt;stroke-linejoin:miter;stroke-miterlimit:4;stroke-dasharray:none;stroke-opacity:1"
         d="m -70.317681,26.489717 11.703673,-7.063818"
         id="path1446" /></g></g></g>
</svg>
