<?xml version="1.0" encoding="utf-8" standalone="no"?>
<!DOCTYPE svg PUBLIC "-//W3C//DTD SVG 1.1//EN"
  "http://www.w3.org/Graphics/SVG/1.1/DTD/svg11.dtd">
<svg xmlns:xlink="http://www.w3.org/1999/xlink" width="432pt" height="288pt" viewBox="0 0 432 288" xmlns="http://www.w3.org/2000/svg" version="1.1">
 <metadata>
  <rdf:RDF xmlns:dc="http://purl.org/dc/elements/1.1/" xmlns:cc="http://creativecommons.org/ns#" xmlns:rdf="http://www.w3.org/1999/02/22-rdf-syntax-ns#">
   <cc:Work>
    <dc:type rdf:resource="http://purl.org/dc/dcmitype/StillImage"/>
    <dc:date>2025-03-24T19:03:18.806812</dc:date>
    <dc:format>image/svg+xml</dc:format>
    <dc:creator>
     <cc:Agent>
      <dc:title>Matplotlib v3.9.0, https://matplotlib.org/</dc:title>
     </cc:Agent>
    </dc:creator>
   </cc:Work>
  </rdf:RDF>
 </metadata>
 <defs>
  <style type="text/css">*{stroke-linejoin: round; stroke-linecap: butt}</style>
 </defs>
 <g id="figure_1">
  <g id="patch_1">
   <path d="M 0 288 
L 432 288 
L 432 0 
L 0 0 
z
" style="fill: #ffffff"/>
  </g>
  <g id="axes_1">
   <g id="patch_2">
    <path d="M 47.38125 246.84375 
L 216.165625 246.84375 
L 216.165625 11.953775 
L 47.38125 11.953775 
z
" style="fill: #ffffff"/>
   </g>
   <g id="matplotlib.axis_1">
    <g id="xtick_1">
     <g id="line2d_1">
      <defs>
       <path id="m51be639b42" d="M 0 0 
L 0 3.5 
" style="stroke: #000000; stroke-width: 0.8"/>
      </defs>
      <g>
       <use xlink:href="#m51be639b42" x="47.38125" y="246.84375" style="stroke: #000000; stroke-width: 0.8"/>
      </g>
     </g>
     <g id="text_1">
      <!-- 21 -->
      <g transform="translate(41.01875 261.442187) scale(0.1 -0.1)">
       <defs>
        <path id="DejaVuSans-32" d="M 1228 531 
L 3431 531 
L 3431 0 
L 469 0 
L 469 531 
Q 828 903 1448 1529 
Q 2069 2156 2228 2338 
Q 2531 2678 2651 2914 
Q 2772 3150 2772 3378 
Q 2772 3750 2511 3984 
Q 2250 4219 1831 4219 
Q 1534 4219 1204 4116 
Q 875 4013 500 3803 
L 500 4441 
Q 881 4594 1212 4672 
Q 1544 4750 1819 4750 
Q 2544 4750 2975 4387 
Q 3406 4025 3406 3419 
Q 3406 3131 3298 2873 
Q 3191 2616 2906 2266 
Q 2828 2175 2409 1742 
Q 1991 1309 1228 531 
z
" transform="scale(0.015625)"/>
        <path id="DejaVuSans-31" d="M 794 531 
L 1825 531 
L 1825 4091 
L 703 3866 
L 703 4441 
L 1819 4666 
L 2450 4666 
L 2450 531 
L 3481 531 
L 3481 0 
L 794 0 
L 794 531 
z
" transform="scale(0.015625)"/>
       </defs>
       <use xlink:href="#DejaVuSans-32"/>
       <use xlink:href="#DejaVuSans-31" x="63.623047"/>
      </g>
     </g>
    </g>
    <g id="xtick_2">
     <g id="line2d_2">
      <g>
       <use xlink:href="#m51be639b42" x="65.376643" y="246.84375" style="stroke: #000000; stroke-width: 0.8"/>
      </g>
     </g>
     <g id="text_2">
      <!-- 50 -->
      <g transform="translate(59.014143 261.442187) scale(0.1 -0.1)">
       <defs>
        <path id="DejaVuSans-35" d="M 691 4666 
L 3169 4666 
L 3169 4134 
L 1269 4134 
L 1269 2991 
Q 1406 3038 1543 3061 
Q 1681 3084 1819 3084 
Q 2600 3084 3056 2656 
Q 3513 2228 3513 1497 
Q 3513 744 3044 326 
Q 2575 -91 1722 -91 
Q 1428 -91 1123 -41 
Q 819 9 494 109 
L 494 744 
Q 775 591 1075 516 
Q 1375 441 1709 441 
Q 2250 441 2565 725 
Q 2881 1009 2881 1497 
Q 2881 1984 2565 2268 
Q 2250 2553 1709 2553 
Q 1456 2553 1204 2497 
Q 953 2441 691 2322 
L 691 4666 
z
" transform="scale(0.015625)"/>
        <path id="DejaVuSans-30" d="M 2034 4250 
Q 1547 4250 1301 3770 
Q 1056 3291 1056 2328 
Q 1056 1369 1301 889 
Q 1547 409 2034 409 
Q 2525 409 2770 889 
Q 3016 1369 3016 2328 
Q 3016 3291 2770 3770 
Q 2525 4250 2034 4250 
z
M 2034 4750 
Q 2819 4750 3233 4129 
Q 3647 3509 3647 2328 
Q 3647 1150 3233 529 
Q 2819 -91 2034 -91 
Q 1250 -91 836 529 
Q 422 1150 422 2328 
Q 422 3509 836 4129 
Q 1250 4750 2034 4750 
z
" transform="scale(0.015625)"/>
       </defs>
       <use xlink:href="#DejaVuSans-35"/>
       <use xlink:href="#DejaVuSans-30" x="63.623047"/>
      </g>
     </g>
    </g>
    <g id="xtick_3">
     <g id="line2d_3">
      <g>
       <use xlink:href="#m51be639b42" x="96.403182" y="246.84375" style="stroke: #000000; stroke-width: 0.8"/>
      </g>
     </g>
     <g id="text_3">
      <!-- 100 -->
      <g transform="translate(86.859432 261.442187) scale(0.1 -0.1)">
       <use xlink:href="#DejaVuSans-31"/>
       <use xlink:href="#DejaVuSans-30" x="63.623047"/>
       <use xlink:href="#DejaVuSans-30" x="127.246094"/>
      </g>
     </g>
    </g>
    <g id="xtick_4">
     <g id="line2d_4">
      <g>
       <use xlink:href="#m51be639b42" x="127.429722" y="246.84375" style="stroke: #000000; stroke-width: 0.8"/>
      </g>
     </g>
     <g id="text_4">
      <!-- 150 -->
      <g transform="translate(117.885972 261.442187) scale(0.1 -0.1)">
       <use xlink:href="#DejaVuSans-31"/>
       <use xlink:href="#DejaVuSans-35" x="63.623047"/>
       <use xlink:href="#DejaVuSans-30" x="127.246094"/>
      </g>
     </g>
    </g>
    <g id="xtick_5">
     <g id="line2d_5">
      <g>
       <use xlink:href="#m51be639b42" x="158.456261" y="246.84375" style="stroke: #000000; stroke-width: 0.8"/>
      </g>
     </g>
     <g id="text_5">
      <!-- 200 -->
      <g transform="translate(148.912511 261.442187) scale(0.1 -0.1)">
       <use xlink:href="#DejaVuSans-32"/>
       <use xlink:href="#DejaVuSans-30" x="63.623047"/>
       <use xlink:href="#DejaVuSans-30" x="127.246094"/>
      </g>
     </g>
    </g>
    <g id="xtick_6">
     <g id="line2d_6">
      <g>
       <use xlink:href="#m51be639b42" x="189.482801" y="246.84375" style="stroke: #000000; stroke-width: 0.8"/>
      </g>
     </g>
     <g id="text_6">
      <!-- 250 -->
      <g transform="translate(179.939051 261.442187) scale(0.1 -0.1)">
       <use xlink:href="#DejaVuSans-32"/>
       <use xlink:href="#DejaVuSans-35" x="63.623047"/>
       <use xlink:href="#DejaVuSans-30" x="127.246094"/>
      </g>
     </g>
    </g>
    <g id="xtick_7">
     <g id="line2d_7">
      <g>
       <use xlink:href="#m51be639b42" x="216.165625" y="246.84375" style="stroke: #000000; stroke-width: 0.8"/>
      </g>
     </g>
     <g id="text_7">
      <!-- 293 -->
      <g transform="translate(206.621875 261.442187) scale(0.1 -0.1)">
       <defs>
        <path id="DejaVuSans-39" d="M 703 97 
L 703 672 
Q 941 559 1184 500 
Q 1428 441 1663 441 
Q 2288 441 2617 861 
Q 2947 1281 2994 2138 
Q 2813 1869 2534 1725 
Q 2256 1581 1919 1581 
Q 1219 1581 811 2004 
Q 403 2428 403 3163 
Q 403 3881 828 4315 
Q 1253 4750 1959 4750 
Q 2769 4750 3195 4129 
Q 3622 3509 3622 2328 
Q 3622 1225 3098 567 
Q 2575 -91 1691 -91 
Q 1453 -91 1209 -44 
Q 966 3 703 97 
z
M 1959 2075 
Q 2384 2075 2632 2365 
Q 2881 2656 2881 3163 
Q 2881 3666 2632 3958 
Q 2384 4250 1959 4250 
Q 1534 4250 1286 3958 
Q 1038 3666 1038 3163 
Q 1038 2656 1286 2365 
Q 1534 2075 1959 2075 
z
" transform="scale(0.015625)"/>
        <path id="DejaVuSans-33" d="M 2597 2516 
Q 3050 2419 3304 2112 
Q 3559 1806 3559 1356 
Q 3559 666 3084 287 
Q 2609 -91 1734 -91 
Q 1441 -91 1130 -33 
Q 819 25 488 141 
L 488 750 
Q 750 597 1062 519 
Q 1375 441 1716 441 
Q 2309 441 2620 675 
Q 2931 909 2931 1356 
Q 2931 1769 2642 2001 
Q 2353 2234 1838 2234 
L 1294 2234 
L 1294 2753 
L 1863 2753 
Q 2328 2753 2575 2939 
Q 2822 3125 2822 3475 
Q 2822 3834 2567 4026 
Q 2313 4219 1838 4219 
Q 1578 4219 1281 4162 
Q 984 4106 628 3988 
L 628 4550 
Q 988 4650 1302 4700 
Q 1616 4750 1894 4750 
Q 2613 4750 3031 4423 
Q 3450 4097 3450 3541 
Q 3450 3153 3228 2886 
Q 3006 2619 2597 2516 
z
" transform="scale(0.015625)"/>
       </defs>
       <use xlink:href="#DejaVuSans-32"/>
       <use xlink:href="#DejaVuSans-39" x="63.623047"/>
       <use xlink:href="#DejaVuSans-33" x="127.246094"/>
      </g>
     </g>
    </g>
    <g id="text_8">
     <!-- PrsA2 (Chain P) Residue Index -->
     <g transform="translate(56.524219 275.120313) scale(0.1 -0.1)">
      <defs>
       <path id="DejaVuSans-50" d="M 1259 4147 
L 1259 2394 
L 2053 2394 
Q 2494 2394 2734 2622 
Q 2975 2850 2975 3272 
Q 2975 3691 2734 3919 
Q 2494 4147 2053 4147 
L 1259 4147 
z
M 628 4666 
L 2053 4666 
Q 2838 4666 3239 4311 
Q 3641 3956 3641 3272 
Q 3641 2581 3239 2228 
Q 2838 1875 2053 1875 
L 1259 1875 
L 1259 0 
L 628 0 
L 628 4666 
z
" transform="scale(0.015625)"/>
       <path id="DejaVuSans-72" d="M 2631 2963 
Q 2534 3019 2420 3045 
Q 2306 3072 2169 3072 
Q 1681 3072 1420 2755 
Q 1159 2438 1159 1844 
L 1159 0 
L 581 0 
L 581 3500 
L 1159 3500 
L 1159 2956 
Q 1341 3275 1631 3429 
Q 1922 3584 2338 3584 
Q 2397 3584 2469 3576 
Q 2541 3569 2628 3553 
L 2631 2963 
z
" transform="scale(0.015625)"/>
       <path id="DejaVuSans-73" d="M 2834 3397 
L 2834 2853 
Q 2591 2978 2328 3040 
Q 2066 3103 1784 3103 
Q 1356 3103 1142 2972 
Q 928 2841 928 2578 
Q 928 2378 1081 2264 
Q 1234 2150 1697 2047 
L 1894 2003 
Q 2506 1872 2764 1633 
Q 3022 1394 3022 966 
Q 3022 478 2636 193 
Q 2250 -91 1575 -91 
Q 1294 -91 989 -36 
Q 684 19 347 128 
L 347 722 
Q 666 556 975 473 
Q 1284 391 1588 391 
Q 1994 391 2212 530 
Q 2431 669 2431 922 
Q 2431 1156 2273 1281 
Q 2116 1406 1581 1522 
L 1381 1569 
Q 847 1681 609 1914 
Q 372 2147 372 2553 
Q 372 3047 722 3315 
Q 1072 3584 1716 3584 
Q 2034 3584 2315 3537 
Q 2597 3491 2834 3397 
z
" transform="scale(0.015625)"/>
       <path id="DejaVuSans-41" d="M 2188 4044 
L 1331 1722 
L 3047 1722 
L 2188 4044 
z
M 1831 4666 
L 2547 4666 
L 4325 0 
L 3669 0 
L 3244 1197 
L 1141 1197 
L 716 0 
L 50 0 
L 1831 4666 
z
" transform="scale(0.015625)"/>
       <path id="DejaVuSans-20" transform="scale(0.015625)"/>
       <path id="DejaVuSans-28" d="M 1984 4856 
Q 1566 4138 1362 3434 
Q 1159 2731 1159 2009 
Q 1159 1288 1364 580 
Q 1569 -128 1984 -844 
L 1484 -844 
Q 1016 -109 783 600 
Q 550 1309 550 2009 
Q 550 2706 781 3412 
Q 1013 4119 1484 4856 
L 1984 4856 
z
" transform="scale(0.015625)"/>
       <path id="DejaVuSans-43" d="M 4122 4306 
L 4122 3641 
Q 3803 3938 3442 4084 
Q 3081 4231 2675 4231 
Q 1875 4231 1450 3742 
Q 1025 3253 1025 2328 
Q 1025 1406 1450 917 
Q 1875 428 2675 428 
Q 3081 428 3442 575 
Q 3803 722 4122 1019 
L 4122 359 
Q 3791 134 3420 21 
Q 3050 -91 2638 -91 
Q 1578 -91 968 557 
Q 359 1206 359 2328 
Q 359 3453 968 4101 
Q 1578 4750 2638 4750 
Q 3056 4750 3426 4639 
Q 3797 4528 4122 4306 
z
" transform="scale(0.015625)"/>
       <path id="DejaVuSans-68" d="M 3513 2113 
L 3513 0 
L 2938 0 
L 2938 2094 
Q 2938 2591 2744 2837 
Q 2550 3084 2163 3084 
Q 1697 3084 1428 2787 
Q 1159 2491 1159 1978 
L 1159 0 
L 581 0 
L 581 4863 
L 1159 4863 
L 1159 2956 
Q 1366 3272 1645 3428 
Q 1925 3584 2291 3584 
Q 2894 3584 3203 3211 
Q 3513 2838 3513 2113 
z
" transform="scale(0.015625)"/>
       <path id="DejaVuSans-61" d="M 2194 1759 
Q 1497 1759 1228 1600 
Q 959 1441 959 1056 
Q 959 750 1161 570 
Q 1363 391 1709 391 
Q 2188 391 2477 730 
Q 2766 1069 2766 1631 
L 2766 1759 
L 2194 1759 
z
M 3341 1997 
L 3341 0 
L 2766 0 
L 2766 531 
Q 2569 213 2275 61 
Q 1981 -91 1556 -91 
Q 1019 -91 701 211 
Q 384 513 384 1019 
Q 384 1609 779 1909 
Q 1175 2209 1959 2209 
L 2766 2209 
L 2766 2266 
Q 2766 2663 2505 2880 
Q 2244 3097 1772 3097 
Q 1472 3097 1187 3025 
Q 903 2953 641 2809 
L 641 3341 
Q 956 3463 1253 3523 
Q 1550 3584 1831 3584 
Q 2591 3584 2966 3190 
Q 3341 2797 3341 1997 
z
" transform="scale(0.015625)"/>
       <path id="DejaVuSans-69" d="M 603 3500 
L 1178 3500 
L 1178 0 
L 603 0 
L 603 3500 
z
M 603 4863 
L 1178 4863 
L 1178 4134 
L 603 4134 
L 603 4863 
z
" transform="scale(0.015625)"/>
       <path id="DejaVuSans-6e" d="M 3513 2113 
L 3513 0 
L 2938 0 
L 2938 2094 
Q 2938 2591 2744 2837 
Q 2550 3084 2163 3084 
Q 1697 3084 1428 2787 
Q 1159 2491 1159 1978 
L 1159 0 
L 581 0 
L 581 3500 
L 1159 3500 
L 1159 2956 
Q 1366 3272 1645 3428 
Q 1925 3584 2291 3584 
Q 2894 3584 3203 3211 
Q 3513 2838 3513 2113 
z
" transform="scale(0.015625)"/>
       <path id="DejaVuSans-29" d="M 513 4856 
L 1013 4856 
Q 1481 4119 1714 3412 
Q 1947 2706 1947 2009 
Q 1947 1309 1714 600 
Q 1481 -109 1013 -844 
L 513 -844 
Q 928 -128 1133 580 
Q 1338 1288 1338 2009 
Q 1338 2731 1133 3434 
Q 928 4138 513 4856 
z
" transform="scale(0.015625)"/>
       <path id="DejaVuSans-52" d="M 2841 2188 
Q 3044 2119 3236 1894 
Q 3428 1669 3622 1275 
L 4263 0 
L 3584 0 
L 2988 1197 
Q 2756 1666 2539 1819 
Q 2322 1972 1947 1972 
L 1259 1972 
L 1259 0 
L 628 0 
L 628 4666 
L 2053 4666 
Q 2853 4666 3247 4331 
Q 3641 3997 3641 3322 
Q 3641 2881 3436 2590 
Q 3231 2300 2841 2188 
z
M 1259 4147 
L 1259 2491 
L 2053 2491 
Q 2509 2491 2742 2702 
Q 2975 2913 2975 3322 
Q 2975 3731 2742 3939 
Q 2509 4147 2053 4147 
L 1259 4147 
z
" transform="scale(0.015625)"/>
       <path id="DejaVuSans-65" d="M 3597 1894 
L 3597 1613 
L 953 1613 
Q 991 1019 1311 708 
Q 1631 397 2203 397 
Q 2534 397 2845 478 
Q 3156 559 3463 722 
L 3463 178 
Q 3153 47 2828 -22 
Q 2503 -91 2169 -91 
Q 1331 -91 842 396 
Q 353 884 353 1716 
Q 353 2575 817 3079 
Q 1281 3584 2069 3584 
Q 2775 3584 3186 3129 
Q 3597 2675 3597 1894 
z
M 3022 2063 
Q 3016 2534 2758 2815 
Q 2500 3097 2075 3097 
Q 1594 3097 1305 2825 
Q 1016 2553 972 2059 
L 3022 2063 
z
" transform="scale(0.015625)"/>
       <path id="DejaVuSans-64" d="M 2906 2969 
L 2906 4863 
L 3481 4863 
L 3481 0 
L 2906 0 
L 2906 525 
Q 2725 213 2448 61 
Q 2172 -91 1784 -91 
Q 1150 -91 751 415 
Q 353 922 353 1747 
Q 353 2572 751 3078 
Q 1150 3584 1784 3584 
Q 2172 3584 2448 3432 
Q 2725 3281 2906 2969 
z
M 947 1747 
Q 947 1113 1208 752 
Q 1469 391 1925 391 
Q 2381 391 2643 752 
Q 2906 1113 2906 1747 
Q 2906 2381 2643 2742 
Q 2381 3103 1925 3103 
Q 1469 3103 1208 2742 
Q 947 2381 947 1747 
z
" transform="scale(0.015625)"/>
       <path id="DejaVuSans-75" d="M 544 1381 
L 544 3500 
L 1119 3500 
L 1119 1403 
Q 1119 906 1312 657 
Q 1506 409 1894 409 
Q 2359 409 2629 706 
Q 2900 1003 2900 1516 
L 2900 3500 
L 3475 3500 
L 3475 0 
L 2900 0 
L 2900 538 
Q 2691 219 2414 64 
Q 2138 -91 1772 -91 
Q 1169 -91 856 284 
Q 544 659 544 1381 
z
M 1991 3584 
L 1991 3584 
z
" transform="scale(0.015625)"/>
       <path id="DejaVuSans-49" d="M 628 4666 
L 1259 4666 
L 1259 0 
L 628 0 
L 628 4666 
z
" transform="scale(0.015625)"/>
       <path id="DejaVuSans-78" d="M 3513 3500 
L 2247 1797 
L 3578 0 
L 2900 0 
L 1881 1375 
L 863 0 
L 184 0 
L 1544 1831 
L 300 3500 
L 978 3500 
L 1906 2253 
L 2834 3500 
L 3513 3500 
z
" transform="scale(0.015625)"/>
      </defs>
      <use xlink:href="#DejaVuSans-50"/>
      <use xlink:href="#DejaVuSans-72" x="58.552734"/>
      <use xlink:href="#DejaVuSans-73" x="99.666016"/>
      <use xlink:href="#DejaVuSans-41" x="151.765625"/>
      <use xlink:href="#DejaVuSans-32" x="220.173828"/>
      <use xlink:href="#DejaVuSans-20" x="283.796875"/>
      <use xlink:href="#DejaVuSans-28" x="315.583984"/>
      <use xlink:href="#DejaVuSans-43" x="354.597656"/>
      <use xlink:href="#DejaVuSans-68" x="424.421875"/>
      <use xlink:href="#DejaVuSans-61" x="487.800781"/>
      <use xlink:href="#DejaVuSans-69" x="549.080078"/>
      <use xlink:href="#DejaVuSans-6e" x="576.863281"/>
      <use xlink:href="#DejaVuSans-20" x="640.242188"/>
      <use xlink:href="#DejaVuSans-50" x="672.029297"/>
      <use xlink:href="#DejaVuSans-29" x="732.332031"/>
      <use xlink:href="#DejaVuSans-20" x="771.345703"/>
      <use xlink:href="#DejaVuSans-52" x="803.132812"/>
      <use xlink:href="#DejaVuSans-65" x="868.115234"/>
      <use xlink:href="#DejaVuSans-73" x="929.638672"/>
      <use xlink:href="#DejaVuSans-69" x="981.738281"/>
      <use xlink:href="#DejaVuSans-64" x="1009.521484"/>
      <use xlink:href="#DejaVuSans-75" x="1072.998047"/>
      <use xlink:href="#DejaVuSans-65" x="1136.376953"/>
      <use xlink:href="#DejaVuSans-20" x="1197.900391"/>
      <use xlink:href="#DejaVuSans-49" x="1229.6875"/>
      <use xlink:href="#DejaVuSans-6e" x="1259.179688"/>
      <use xlink:href="#DejaVuSans-64" x="1322.558594"/>
      <use xlink:href="#DejaVuSans-65" x="1386.035156"/>
      <use xlink:href="#DejaVuSans-78" x="1445.808594"/>
     </g>
    </g>
   </g>
   <g id="matplotlib.axis_2">
    <g id="ytick_1">
     <g id="line2d_8">
      <defs>
       <path id="m94c50d7db8" d="M 0 0 
L -3.5 0 
" style="stroke: #000000; stroke-width: 0.8"/>
      </defs>
      <g>
       <use xlink:href="#m94c50d7db8" x="47.38125" y="230.866473" style="stroke: #000000; stroke-width: 0.8"/>
      </g>
     </g>
     <g id="text_9">
      <!-- 0.5 -->
      <g transform="translate(24.478125 234.665692) scale(0.1 -0.1)">
       <defs>
        <path id="DejaVuSans-2e" d="M 684 794 
L 1344 794 
L 1344 0 
L 684 0 
L 684 794 
z
" transform="scale(0.015625)"/>
       </defs>
       <use xlink:href="#DejaVuSans-30"/>
       <use xlink:href="#DejaVuSans-2e" x="63.623047"/>
       <use xlink:href="#DejaVuSans-35" x="95.410156"/>
      </g>
     </g>
    </g>
    <g id="ytick_2">
     <g id="line2d_9">
      <g>
       <use xlink:href="#m94c50d7db8" x="47.38125" y="203.852645" style="stroke: #000000; stroke-width: 0.8"/>
      </g>
     </g>
     <g id="text_10">
      <!-- 1.0 -->
      <g transform="translate(24.478125 207.651864) scale(0.1 -0.1)">
       <use xlink:href="#DejaVuSans-31"/>
       <use xlink:href="#DejaVuSans-2e" x="63.623047"/>
       <use xlink:href="#DejaVuSans-30" x="95.410156"/>
      </g>
     </g>
    </g>
    <g id="ytick_3">
     <g id="line2d_10">
      <g>
       <use xlink:href="#m94c50d7db8" x="47.38125" y="176.838818" style="stroke: #000000; stroke-width: 0.8"/>
      </g>
     </g>
     <g id="text_11">
      <!-- 1.5 -->
      <g transform="translate(24.478125 180.638036) scale(0.1 -0.1)">
       <use xlink:href="#DejaVuSans-31"/>
       <use xlink:href="#DejaVuSans-2e" x="63.623047"/>
       <use xlink:href="#DejaVuSans-35" x="95.410156"/>
      </g>
     </g>
    </g>
    <g id="ytick_4">
     <g id="line2d_11">
      <g>
       <use xlink:href="#m94c50d7db8" x="47.38125" y="149.82499" style="stroke: #000000; stroke-width: 0.8"/>
      </g>
     </g>
     <g id="text_12">
      <!-- 2.0 -->
      <g transform="translate(24.478125 153.624208) scale(0.1 -0.1)">
       <use xlink:href="#DejaVuSans-32"/>
       <use xlink:href="#DejaVuSans-2e" x="63.623047"/>
       <use xlink:href="#DejaVuSans-30" x="95.410156"/>
      </g>
     </g>
    </g>
    <g id="ytick_5">
     <g id="line2d_12">
      <g>
       <use xlink:href="#m94c50d7db8" x="47.38125" y="122.811162" style="stroke: #000000; stroke-width: 0.8"/>
      </g>
     </g>
     <g id="text_13">
      <!-- 2.5 -->
      <g transform="translate(24.478125 126.610381) scale(0.1 -0.1)">
       <use xlink:href="#DejaVuSans-32"/>
       <use xlink:href="#DejaVuSans-2e" x="63.623047"/>
       <use xlink:href="#DejaVuSans-35" x="95.410156"/>
      </g>
     </g>
    </g>
    <g id="ytick_6">
     <g id="line2d_13">
      <g>
       <use xlink:href="#m94c50d7db8" x="47.38125" y="95.797334" style="stroke: #000000; stroke-width: 0.8"/>
      </g>
     </g>
     <g id="text_14">
      <!-- 3.0 -->
      <g transform="translate(24.478125 99.596553) scale(0.1 -0.1)">
       <use xlink:href="#DejaVuSans-33"/>
       <use xlink:href="#DejaVuSans-2e" x="63.623047"/>
       <use xlink:href="#DejaVuSans-30" x="95.410156"/>
      </g>
     </g>
    </g>
    <g id="ytick_7">
     <g id="line2d_14">
      <g>
       <use xlink:href="#m94c50d7db8" x="47.38125" y="68.783506" style="stroke: #000000; stroke-width: 0.8"/>
      </g>
     </g>
     <g id="text_15">
      <!-- 3.5 -->
      <g transform="translate(24.478125 72.582725) scale(0.1 -0.1)">
       <use xlink:href="#DejaVuSans-33"/>
       <use xlink:href="#DejaVuSans-2e" x="63.623047"/>
       <use xlink:href="#DejaVuSans-35" x="95.410156"/>
      </g>
     </g>
    </g>
    <g id="ytick_8">
     <g id="line2d_15">
      <g>
       <use xlink:href="#m94c50d7db8" x="47.38125" y="41.769678" style="stroke: #000000; stroke-width: 0.8"/>
      </g>
     </g>
     <g id="text_16">
      <!-- 4.0 -->
      <g transform="translate(24.478125 45.568897) scale(0.1 -0.1)">
       <defs>
        <path id="DejaVuSans-34" d="M 2419 4116 
L 825 1625 
L 2419 1625 
L 2419 4116 
z
M 2253 4666 
L 3047 4666 
L 3047 1625 
L 3713 1625 
L 3713 1100 
L 3047 1100 
L 3047 0 
L 2419 0 
L 2419 1100 
L 313 1100 
L 313 1709 
L 2253 4666 
z
" transform="scale(0.015625)"/>
       </defs>
       <use xlink:href="#DejaVuSans-34"/>
       <use xlink:href="#DejaVuSans-2e" x="63.623047"/>
       <use xlink:href="#DejaVuSans-30" x="95.410156"/>
      </g>
     </g>
    </g>
    <g id="ytick_9">
     <g id="line2d_16">
      <g>
       <use xlink:href="#m94c50d7db8" x="47.38125" y="14.75585" style="stroke: #000000; stroke-width: 0.8"/>
      </g>
     </g>
     <g id="text_17">
      <!-- 4.5 -->
      <g transform="translate(24.478125 18.555069) scale(0.1 -0.1)">
       <use xlink:href="#DejaVuSans-34"/>
       <use xlink:href="#DejaVuSans-2e" x="63.623047"/>
       <use xlink:href="#DejaVuSans-35" x="95.410156"/>
      </g>
     </g>
    </g>
    <g id="text_18">
     <!-- RMSF -->
     <g transform="translate(18.398438 143.237044) rotate(-90) scale(0.1 -0.1)">
      <defs>
       <path id="DejaVuSans-4d" d="M 628 4666 
L 1569 4666 
L 2759 1491 
L 3956 4666 
L 4897 4666 
L 4897 0 
L 4281 0 
L 4281 4097 
L 3078 897 
L 2444 897 
L 1241 4097 
L 1241 0 
L 628 0 
L 628 4666 
z
" transform="scale(0.015625)"/>
       <path id="DejaVuSans-53" d="M 3425 4513 
L 3425 3897 
Q 3066 4069 2747 4153 
Q 2428 4238 2131 4238 
Q 1616 4238 1336 4038 
Q 1056 3838 1056 3469 
Q 1056 3159 1242 3001 
Q 1428 2844 1947 2747 
L 2328 2669 
Q 3034 2534 3370 2195 
Q 3706 1856 3706 1288 
Q 3706 609 3251 259 
Q 2797 -91 1919 -91 
Q 1588 -91 1214 -16 
Q 841 59 441 206 
L 441 856 
Q 825 641 1194 531 
Q 1563 422 1919 422 
Q 2459 422 2753 634 
Q 3047 847 3047 1241 
Q 3047 1584 2836 1778 
Q 2625 1972 2144 2069 
L 1759 2144 
Q 1053 2284 737 2584 
Q 422 2884 422 3419 
Q 422 4038 858 4394 
Q 1294 4750 2059 4750 
Q 2388 4750 2728 4690 
Q 3069 4631 3425 4513 
z
" transform="scale(0.015625)"/>
       <path id="DejaVuSans-46" d="M 628 4666 
L 3309 4666 
L 3309 4134 
L 1259 4134 
L 1259 2759 
L 3109 2759 
L 3109 2228 
L 1259 2228 
L 1259 0 
L 628 0 
L 628 4666 
z
" transform="scale(0.015625)"/>
      </defs>
      <use xlink:href="#DejaVuSans-52"/>
      <use xlink:href="#DejaVuSans-4d" x="69.482422"/>
      <use xlink:href="#DejaVuSans-53" x="155.761719"/>
      <use xlink:href="#DejaVuSans-46" x="219.238281"/>
     </g>
    </g>
   </g>
   <g id="line2d_17">
    <path d="M 47.38125 137.894078 
L 48.001781 188.430182 
L 48.622312 195.185087 
L 49.242842 197.308387 
L 49.863373 196.289466 
L 51.104435 208.644904 
L 51.724966 203.073843 
L 52.345496 195.64849 
L 52.966027 194.647398 
L 53.586558 184.959116 
L 54.207089 189.817873 
L 54.827619 189.760403 
L 55.44815 200.206926 
L 56.068681 207.834672 
L 56.689212 211.303037 
L 57.309743 212.639047 
L 57.930273 210.21289 
L 58.550804 208.905551 
L 59.171335 212.977645 
L 59.791866 215.85139 
L 60.412397 208.55489 
L 61.032927 203.739104 
L 61.653458 210.538944 
L 62.273989 214.527519 
L 62.89452 205.744743 
L 63.515051 201.770298 
L 64.756112 217.988577 
L 65.376643 215.908731 
L 65.997174 212.65316 
L 66.617705 221.606082 
L 67.238235 226.2882 
L 67.858766 225.848676 
L 68.479297 224.720371 
L 69.099828 226.200044 
L 69.720358 226.683741 
L 70.340889 226.75097 
L 71.581951 219.603506 
L 72.202482 222.509901 
L 72.823012 224.550003 
L 73.443543 216.032775 
L 74.064074 210.431452 
L 74.684605 219.853721 
L 75.305136 224.739072 
L 75.925666 218.785056 
L 76.546197 218.516601 
L 77.166728 207.865505 
L 77.787259 205.404865 
L 78.40779 198.21191 
L 79.02832 204.817463 
L 79.648851 218.852673 
L 80.889913 195.05907 
L 81.510443 203.28611 
L 82.130974 213.147548 
L 82.751505 193.592985 
L 83.372036 178.471567 
L 84.613097 208.095936 
L 85.233628 196.929678 
L 85.854159 194.089562 
L 86.47469 200.189939 
L 87.095221 196.697919 
L 87.715751 180.304273 
L 88.956813 211.48729 
L 90.197875 197.529455 
L 91.438936 210.164353 
L 92.059467 205.502314 
L 92.679998 189.153831 
L 93.300528 189.562497 
L 93.921059 188.739092 
L 94.54159 202.868816 
L 95.162121 201.393435 
L 95.782652 204.51815 
L 96.403182 204.82325 
L 97.023713 207.851479 
L 97.644244 216.56272 
L 98.264775 220.11181 
L 98.885306 216.104631 
L 99.505836 217.460118 
L 100.126367 222.618772 
L 100.746898 223.756681 
L 101.367429 223.693126 
L 101.98796 221.893173 
L 102.60849 223.361954 
L 103.229021 225.972974 
L 103.849552 225.33448 
L 104.470083 221.968776 
L 105.090614 223.31277 
L 105.711144 226.483925 
L 106.331675 225.095381 
L 106.952206 222.363234 
L 108.193267 220.314905 
L 108.813798 218.263875 
L 109.434329 213.56414 
L 110.05486 197.57591 
L 110.675391 200.934529 
L 111.916452 203.574872 
L 112.536983 210.894072 
L 113.157514 213.588915 
L 113.778045 205.587925 
L 114.398575 201.047094 
L 115.019106 208.412112 
L 115.639637 208.540475 
L 116.260168 194.596072 
L 116.880699 192.245276 
L 117.501229 205.768024 
L 118.12176 202.989956 
L 118.742291 201.20354 
L 119.362822 200.78337 
L 119.983352 205.814223 
L 120.603883 203.158185 
L 121.844945 225.969172 
L 122.465476 228.897115 
L 123.086006 227.819029 
L 123.706537 222.623385 
L 124.327068 214.45357 
L 124.947599 199.013982 
L 125.56813 195.619237 
L 126.18866 195.516934 
L 126.809191 190.795822 
L 127.429722 198.970538 
L 128.050253 209.776445 
L 128.670784 200.177741 
L 129.291314 195.953187 
L 129.911845 209.138419 
L 130.532376 207.245955 
L 131.152907 192.922442 
L 131.773438 195.713866 
L 132.393968 202.137747 
L 133.014499 185.377358 
L 133.63503 171.798167 
L 134.255561 170.880987 
L 134.876091 187.458165 
L 135.496622 194.029042 
L 136.117153 210.258542 
L 136.737684 203.211594 
L 137.358215 200.835753 
L 137.978745 211.325808 
L 138.599276 217.227413 
L 139.219807 207.424873 
L 139.840338 201.231109 
L 141.081399 217.647289 
L 141.70193 210.75522 
L 142.322461 207.122336 
L 142.942992 200.773397 
L 143.563523 206.473176 
L 144.184053 217.236344 
L 144.804584 211.553983 
L 145.425115 204.684499 
L 146.045646 213.010605 
L 146.666176 215.244596 
L 147.286707 225.601695 
L 147.907238 221.660876 
L 148.527769 213.060619 
L 149.76883 202.67641 
L 150.389361 199.061713 
L 151.009892 177.119139 
L 151.630423 161.222937 
L 152.250954 161.27373 
L 152.871484 178.098564 
L 153.492015 187.537428 
L 154.112546 180.477588 
L 154.733077 171.015551 
L 155.353608 176.053732 
L 155.974138 194.767915 
L 156.594669 189.185631 
L 157.2152 178.620172 
L 158.456261 199.414751 
L 159.076792 183.373275 
L 159.697323 181.760166 
L 160.317854 192.663972 
L 160.938385 179.865357 
L 161.558915 185.977004 
L 162.179446 196.245348 
L 162.799977 203.121337 
L 163.420508 203.474881 
L 164.041039 211.727372 
L 164.661569 209.783126 
L 165.2821 205.99376 
L 165.902631 211.24733 
L 166.523162 203.105993 
L 167.143693 199.467734 
L 167.764223 200.625863 
L 168.384754 194.281235 
L 169.005285 205.217748 
L 169.625816 205.788195 
L 170.866877 220.210548 
L 171.487408 222.86635 
L 172.107939 221.450518 
L 172.72847 215.192157 
L 173.349 210.716469 
L 173.969531 208.449684 
L 174.590062 200.478686 
L 175.210593 196.49211 
L 175.831124 189.30108 
L 176.451654 188.616432 
L 177.072185 193.788981 
L 177.692716 179.206822 
L 178.313247 183.117565 
L 178.933778 191.907823 
L 179.554308 171.384696 
L 180.174839 177.03756 
L 180.79537 195.479246 
L 181.415901 197.034634 
L 182.036432 192.492683 
L 182.656962 201.624535 
L 183.277493 212.842692 
L 184.518555 204.180947 
L 185.139085 205.743352 
L 185.759616 214.269795 
L 186.380147 208.984552 
L 187.000678 198.046535 
L 187.621209 203.665859 
L 188.241739 212.551731 
L 188.86227 215.81809 
L 189.482801 207.879159 
L 190.103332 205.44103 
L 190.723863 206.69807 
L 191.344393 215.903855 
L 191.964924 219.094633 
L 192.585455 217.100875 
L 193.205986 216.986468 
L 193.826517 223.268538 
L 194.447047 223.739052 
L 195.067578 218.619563 
L 195.688109 217.583206 
L 196.30864 223.001761 
L 196.92917 221.175813 
L 197.549701 210.633222 
L 198.170232 210.061745 
L 198.790763 214.550882 
L 199.411294 208.335404 
L 200.031824 215.806709 
L 200.652355 210.676884 
L 201.272886 212.560688 
L 201.893417 208.284385 
L 202.513948 205.01095 
L 203.134478 189.121811 
L 203.755009 195.766583 
L 204.37554 210.794687 
L 204.996071 199.135521 
L 205.616602 203.430559 
L 206.237132 206.108896 
L 206.857663 212.612154 
L 207.478194 202.896681 
L 208.098725 206.007903 
L 208.719256 212.149394 
L 209.339786 201.371587 
L 210.580848 167.880456 
L 211.201379 168.088124 
L 211.821909 133.188884 
L 212.44244 118.436439 
L 213.062971 120.063373 
L 213.683502 156.707883 
L 214.304033 170.786964 
L 214.924563 168.064639 
L 215.545094 177.797057 
L 216.165625 198.303713 
L 216.165625 198.303713 
" clip-path="url(#p372b3ed68b)" style="fill: none; stroke: #003594; stroke-width: 1.2; stroke-linecap: round"/>
   </g>
   <g id="line2d_18">
    <path d="M 47.38125 193.826905 
L 48.001781 189.185515 
L 48.622312 193.153497 
L 49.242842 197.880332 
L 49.863373 206.972675 
L 50.483904 211.077668 
L 51.104435 217.387044 
L 51.724966 215.246276 
L 52.345496 209.738361 
L 52.966027 210.299495 
L 53.586558 205.807285 
L 54.207089 205.764794 
L 54.827619 199.958079 
L 56.068681 220.105986 
L 56.689212 218.39131 
L 57.309743 222.447751 
L 57.930273 221.629034 
L 59.171335 228.416232 
L 59.791866 228.728537 
L 60.412397 226.023738 
L 61.032927 227.579664 
L 61.653458 227.969174 
L 62.89452 221.966664 
L 63.515051 222.338892 
L 64.135581 219.209483 
L 64.756112 219.673895 
L 65.376643 205.493136 
L 65.997174 195.263763 
L 66.617705 199.379506 
L 67.238235 218.320666 
L 67.858766 225.022217 
L 68.479297 217.415301 
L 69.099828 216.670848 
L 69.720358 226.488685 
L 70.340889 232.332601 
L 70.96142 227.396813 
L 71.581951 224.985126 
L 72.202482 228.508786 
L 72.823012 227.464364 
L 73.443543 220.522005 
L 74.064074 220.185947 
L 74.684605 224.819691 
L 75.305136 222.880768 
L 75.925666 216.9836 
L 76.546197 219.831184 
L 77.166728 216.902558 
L 77.787259 217.113299 
L 78.40779 216.760106 
L 79.648851 228.523357 
L 80.269382 223.384464 
L 80.889913 221.412449 
L 81.510443 224.282753 
L 82.130974 224.356494 
L 82.751505 222.633775 
L 83.372036 224.275962 
L 83.992567 223.773626 
L 84.613097 222.797082 
L 85.233628 223.349606 
L 85.854159 219.665083 
L 86.47469 213.708897 
L 87.095221 209.331083 
L 87.715751 197.829896 
L 88.336282 203.569441 
L 88.956813 214.866543 
L 89.577344 205.874914 
L 90.197875 204.361846 
L 90.818405 216.14442 
L 91.438936 213.526534 
L 92.059467 208.783273 
L 92.679998 214.942202 
L 93.300528 216.383713 
L 93.921059 207.11136 
L 94.54159 215.080351 
L 95.162121 206.645696 
L 95.782652 210.360002 
L 96.403182 211.343085 
L 97.023713 219.431758 
L 97.644244 225.108552 
L 98.264775 225.124572 
L 98.885306 222.136197 
L 99.505836 225.51798 
L 100.126367 228.22242 
L 101.367429 228.861789 
L 101.98796 229.756861 
L 102.60849 230.861252 
L 103.229021 229.430387 
L 103.849552 230.700139 
L 104.470083 228.182709 
L 105.090614 227.167504 
L 105.711144 229.164168 
L 106.331675 228.959748 
L 106.952206 225.000977 
L 107.572737 219.168375 
L 108.193267 218.548099 
L 108.813798 221.006536 
L 109.434329 216.549286 
L 110.05486 215.975385 
L 110.675391 211.35837 
L 111.295921 212.301094 
L 111.916452 208.32364 
L 112.536983 216.998767 
L 113.157514 224.068512 
L 114.398575 212.759558 
L 115.019106 220.771373 
L 115.639637 222.50526 
L 116.260168 212.168863 
L 116.880699 209.290707 
L 117.501229 220.456544 
L 118.12176 218.543801 
L 118.742291 217.501486 
L 119.362822 220.102599 
L 119.983352 225.122033 
L 120.603883 227.745672 
L 121.224414 226.511685 
L 122.465476 233.754145 
L 123.086006 231.348881 
L 124.327068 213.025811 
L 124.947599 200.863733 
L 125.56813 197.198001 
L 126.18866 202.138994 
L 126.809191 195.363379 
L 127.429722 202.510886 
L 128.050253 216.667794 
L 128.670784 207.793631 
L 129.291314 203.026226 
L 129.911845 216.244505 
L 130.532376 213.893328 
L 131.152907 205.720432 
L 131.773438 211.951583 
L 132.393968 215.783874 
L 133.014499 203.98402 
L 133.63503 204.575876 
L 134.876091 213.302641 
L 135.496622 214.247655 
L 136.117153 222.817663 
L 137.358215 210.382425 
L 137.978745 217.755767 
L 138.599276 219.947358 
L 139.219807 208.02569 
L 139.840338 205.025446 
L 140.460869 213.208761 
L 141.081399 217.513371 
L 141.70193 210.664612 
L 142.322461 209.044535 
L 142.942992 200.992693 
L 143.563523 206.111329 
L 144.184053 216.961079 
L 145.425115 197.827994 
L 146.045646 208.11989 
L 146.666176 210.581736 
L 147.286707 222.897229 
L 147.907238 228.01507 
L 148.527769 227.956133 
L 149.1483 223.969847 
L 149.76883 223.204819 
L 150.389361 220.899325 
L 151.009892 214.032798 
L 151.630423 214.418578 
L 152.250954 209.549625 
L 152.871484 218.135485 
L 153.492015 219.630101 
L 154.112546 214.634555 
L 154.733077 210.91455 
L 155.353608 206.362766 
L 155.974138 213.835896 
L 156.594669 215.035633 
L 157.2152 204.740086 
L 157.835731 197.889968 
L 158.456261 202.379934 
L 159.076792 196.394005 
L 160.317854 216.073907 
L 160.938385 198.199668 
L 161.558915 212.298153 
L 162.179446 220.356916 
L 162.799977 213.520133 
L 163.420508 214.701903 
L 164.041039 219.838939 
L 164.661569 220.946636 
L 165.2821 217.929961 
L 165.902631 221.407136 
L 166.523162 217.619436 
L 167.143693 216.363691 
L 167.764223 212.839822 
L 168.384754 198.771882 
L 169.005285 198.45839 
L 170.246347 222.502974 
L 171.487408 231.463309 
L 172.107939 229.764906 
L 172.72847 224.301368 
L 173.349 221.947443 
L 173.969531 220.861012 
L 174.590062 220.847185 
L 175.210593 218.34528 
L 175.831124 213.991968 
L 176.451654 198.163359 
L 177.072185 203.231652 
L 177.692716 192.450884 
L 178.933778 208.583737 
L 180.174839 189.599369 
L 180.79537 209.072432 
L 181.415901 212.405355 
L 182.036432 206.048778 
L 182.656962 212.494367 
L 183.277493 224.634784 
L 183.898024 223.653455 
L 184.518555 217.928921 
L 185.139085 222.867378 
L 185.759616 229.801027 
L 186.380147 229.141428 
L 187.000678 222.93031 
L 187.621209 221.265142 
L 188.241739 224.257373 
L 188.86227 218.320133 
L 189.482801 208.470532 
L 190.103332 209.946545 
L 190.723863 209.954592 
L 191.344393 219.079019 
L 191.964924 222.221295 
L 192.585455 220.875444 
L 193.205986 218.852321 
L 193.826517 226.834061 
L 194.447047 229.092486 
L 195.067578 227.57764 
L 195.688109 225.626194 
L 196.30864 228.759639 
L 196.92917 229.959061 
L 197.549701 222.281134 
L 198.170232 221.221792 
L 198.790763 223.912062 
L 199.411294 219.433559 
L 200.031824 225.40552 
L 200.652355 221.099512 
L 201.272886 221.560379 
L 201.893417 215.917482 
L 202.513948 214.406985 
L 203.134478 208.91467 
L 203.755009 211.932364 
L 204.37554 219.827573 
L 204.996071 200.039296 
L 205.616602 209.396482 
L 206.237132 221.359597 
L 206.857663 225.980842 
L 207.478194 218.269465 
L 208.098725 213.05645 
L 208.719256 222.896436 
L 210.580848 167.429271 
L 211.201379 175.05184 
L 211.821909 165.284201 
L 213.062971 117.660851 
L 213.683502 140.821174 
L 214.304033 196.775605 
L 214.924563 134.098279 
L 215.545094 119.876239 
L 216.165625 122.236029 
L 216.165625 122.236029 
" clip-path="url(#p372b3ed68b)" style="fill: none; stroke: #4a89ff; stroke-width: 1.2; stroke-linecap: round"/>
   </g>
   <g id="patch_3">
    <path d="M 47.38125 246.84375 
L 47.38125 11.953775 
" style="fill: none; stroke: #000000; stroke-width: 0.8; stroke-linejoin: miter; stroke-linecap: square"/>
   </g>
   <g id="patch_4">
    <path d="M 216.165625 246.84375 
L 216.165625 11.953775 
" style="fill: none; stroke: #000000; stroke-width: 0.8; stroke-linejoin: miter; stroke-linecap: square"/>
   </g>
   <g id="patch_5">
    <path d="M 47.38125 246.84375 
L 216.165625 246.84375 
" style="fill: none; stroke: #000000; stroke-width: 0.8; stroke-linejoin: miter; stroke-linecap: square"/>
   </g>
   <g id="patch_6">
    <path d="M 47.38125 11.953775 
L 216.165625 11.953775 
" style="fill: none; stroke: #000000; stroke-width: 0.8; stroke-linejoin: miter; stroke-linecap: square"/>
   </g>
   <g id="legend_1">
    <g id="line2d_19">
     <path d="M 155.75625 25.052212 
L 165.75625 25.052212 
L 175.75625 25.052212 
" style="fill: none; stroke: #003594; stroke-width: 1.2; stroke-linecap: round"/>
    </g>
    <g id="text_19">
     <!-- pH 7 -->
     <g transform="translate(183.75625 28.552212) scale(0.1 -0.1)">
      <defs>
       <path id="DejaVuSans-70" d="M 1159 525 
L 1159 -1331 
L 581 -1331 
L 581 3500 
L 1159 3500 
L 1159 2969 
Q 1341 3281 1617 3432 
Q 1894 3584 2278 3584 
Q 2916 3584 3314 3078 
Q 3713 2572 3713 1747 
Q 3713 922 3314 415 
Q 2916 -91 2278 -91 
Q 1894 -91 1617 61 
Q 1341 213 1159 525 
z
M 3116 1747 
Q 3116 2381 2855 2742 
Q 2594 3103 2138 3103 
Q 1681 3103 1420 2742 
Q 1159 2381 1159 1747 
Q 1159 1113 1420 752 
Q 1681 391 2138 391 
Q 2594 391 2855 752 
Q 3116 1113 3116 1747 
z
" transform="scale(0.015625)"/>
       <path id="DejaVuSans-48" d="M 628 4666 
L 1259 4666 
L 1259 2753 
L 3553 2753 
L 3553 4666 
L 4184 4666 
L 4184 0 
L 3553 0 
L 3553 2222 
L 1259 2222 
L 1259 0 
L 628 0 
L 628 4666 
z
" transform="scale(0.015625)"/>
       <path id="DejaVuSans-37" d="M 525 4666 
L 3525 4666 
L 3525 4397 
L 1831 0 
L 1172 0 
L 2766 4134 
L 525 4134 
L 525 4666 
z
" transform="scale(0.015625)"/>
      </defs>
      <use xlink:href="#DejaVuSans-70"/>
      <use xlink:href="#DejaVuSans-48" x="63.476562"/>
      <use xlink:href="#DejaVuSans-20" x="138.671875"/>
      <use xlink:href="#DejaVuSans-37" x="170.458984"/>
     </g>
    </g>
    <g id="line2d_20">
     <path d="M 155.75625 39.730337 
L 165.75625 39.730337 
L 175.75625 39.730337 
" style="fill: none; stroke: #4a89ff; stroke-width: 1.2; stroke-linecap: round"/>
    </g>
    <g id="text_20">
     <!-- pH 5 -->
     <g transform="translate(183.75625 43.230337) scale(0.1 -0.1)">
      <use xlink:href="#DejaVuSans-70"/>
      <use xlink:href="#DejaVuSans-48" x="63.476562"/>
      <use xlink:href="#DejaVuSans-20" x="138.671875"/>
      <use xlink:href="#DejaVuSans-35" x="170.458984"/>
     </g>
    </g>
   </g>
  </g>
  <g id="axes_2">
   <g id="patch_7">
    <path d="M 242.871875 246.84375 
L 411.65625 246.84375 
L 411.65625 11.953775 
L 242.871875 11.953775 
z
" style="fill: #ffffff"/>
   </g>
   <g id="matplotlib.axis_3">
    <g id="xtick_8">
     <g id="line2d_21">
      <g>
       <use xlink:href="#m51be639b42" x="242.871875" y="246.84375" style="stroke: #000000; stroke-width: 0.8"/>
      </g>
     </g>
     <g id="text_21">
      <!-- 21 -->
      <g transform="translate(236.509375 261.442187) scale(0.1 -0.1)">
       <use xlink:href="#DejaVuSans-32"/>
       <use xlink:href="#DejaVuSans-31" x="63.623047"/>
      </g>
     </g>
    </g>
    <g id="xtick_9">
     <g id="line2d_22">
      <g>
       <use xlink:href="#m51be639b42" x="260.867268" y="246.84375" style="stroke: #000000; stroke-width: 0.8"/>
      </g>
     </g>
     <g id="text_22">
      <!-- 50 -->
      <g transform="translate(254.504768 261.442187) scale(0.1 -0.1)">
       <use xlink:href="#DejaVuSans-35"/>
       <use xlink:href="#DejaVuSans-30" x="63.623047"/>
      </g>
     </g>
    </g>
    <g id="xtick_10">
     <g id="line2d_23">
      <g>
       <use xlink:href="#m51be639b42" x="291.893807" y="246.84375" style="stroke: #000000; stroke-width: 0.8"/>
      </g>
     </g>
     <g id="text_23">
      <!-- 100 -->
      <g transform="translate(282.350057 261.442187) scale(0.1 -0.1)">
       <use xlink:href="#DejaVuSans-31"/>
       <use xlink:href="#DejaVuSans-30" x="63.623047"/>
       <use xlink:href="#DejaVuSans-30" x="127.246094"/>
      </g>
     </g>
    </g>
    <g id="xtick_11">
     <g id="line2d_24">
      <g>
       <use xlink:href="#m51be639b42" x="322.920347" y="246.84375" style="stroke: #000000; stroke-width: 0.8"/>
      </g>
     </g>
     <g id="text_24">
      <!-- 150 -->
      <g transform="translate(313.376597 261.442187) scale(0.1 -0.1)">
       <use xlink:href="#DejaVuSans-31"/>
       <use xlink:href="#DejaVuSans-35" x="63.623047"/>
       <use xlink:href="#DejaVuSans-30" x="127.246094"/>
      </g>
     </g>
    </g>
    <g id="xtick_12">
     <g id="line2d_25">
      <g>
       <use xlink:href="#m51be639b42" x="353.946886" y="246.84375" style="stroke: #000000; stroke-width: 0.8"/>
      </g>
     </g>
     <g id="text_25">
      <!-- 200 -->
      <g transform="translate(344.403136 261.442187) scale(0.1 -0.1)">
       <use xlink:href="#DejaVuSans-32"/>
       <use xlink:href="#DejaVuSans-30" x="63.623047"/>
       <use xlink:href="#DejaVuSans-30" x="127.246094"/>
      </g>
     </g>
    </g>
    <g id="xtick_13">
     <g id="line2d_26">
      <g>
       <use xlink:href="#m51be639b42" x="384.973426" y="246.84375" style="stroke: #000000; stroke-width: 0.8"/>
      </g>
     </g>
     <g id="text_26">
      <!-- 250 -->
      <g transform="translate(375.429676 261.442187) scale(0.1 -0.1)">
       <use xlink:href="#DejaVuSans-32"/>
       <use xlink:href="#DejaVuSans-35" x="63.623047"/>
       <use xlink:href="#DejaVuSans-30" x="127.246094"/>
      </g>
     </g>
    </g>
    <g id="xtick_14">
     <g id="line2d_27">
      <g>
       <use xlink:href="#m51be639b42" x="411.65625" y="246.84375" style="stroke: #000000; stroke-width: 0.8"/>
      </g>
     </g>
     <g id="text_27">
      <!-- 293 -->
      <g transform="translate(402.1125 261.442187) scale(0.1 -0.1)">
       <use xlink:href="#DejaVuSans-32"/>
       <use xlink:href="#DejaVuSans-39" x="63.623047"/>
       <use xlink:href="#DejaVuSans-33" x="127.246094"/>
      </g>
     </g>
    </g>
    <g id="text_28">
     <!-- PrsA2 (Chain Q) Residue Index -->
     <g transform="translate(251.09375 275.120313) scale(0.1 -0.1)">
      <defs>
       <path id="DejaVuSans-51" d="M 2522 4238 
Q 1834 4238 1429 3725 
Q 1025 3213 1025 2328 
Q 1025 1447 1429 934 
Q 1834 422 2522 422 
Q 3209 422 3611 934 
Q 4013 1447 4013 2328 
Q 4013 3213 3611 3725 
Q 3209 4238 2522 4238 
z
M 3406 84 
L 4238 -825 
L 3475 -825 
L 2784 -78 
Q 2681 -84 2626 -87 
Q 2572 -91 2522 -91 
Q 1538 -91 948 567 
Q 359 1225 359 2328 
Q 359 3434 948 4092 
Q 1538 4750 2522 4750 
Q 3503 4750 4090 4092 
Q 4678 3434 4678 2328 
Q 4678 1516 4351 937 
Q 4025 359 3406 84 
z
" transform="scale(0.015625)"/>
      </defs>
      <use xlink:href="#DejaVuSans-50"/>
      <use xlink:href="#DejaVuSans-72" x="58.552734"/>
      <use xlink:href="#DejaVuSans-73" x="99.666016"/>
      <use xlink:href="#DejaVuSans-41" x="151.765625"/>
      <use xlink:href="#DejaVuSans-32" x="220.173828"/>
      <use xlink:href="#DejaVuSans-20" x="283.796875"/>
      <use xlink:href="#DejaVuSans-28" x="315.583984"/>
      <use xlink:href="#DejaVuSans-43" x="354.597656"/>
      <use xlink:href="#DejaVuSans-68" x="424.421875"/>
      <use xlink:href="#DejaVuSans-61" x="487.800781"/>
      <use xlink:href="#DejaVuSans-69" x="549.080078"/>
      <use xlink:href="#DejaVuSans-6e" x="576.863281"/>
      <use xlink:href="#DejaVuSans-20" x="640.242188"/>
      <use xlink:href="#DejaVuSans-51" x="672.029297"/>
      <use xlink:href="#DejaVuSans-29" x="750.740234"/>
      <use xlink:href="#DejaVuSans-20" x="789.753906"/>
      <use xlink:href="#DejaVuSans-52" x="821.541016"/>
      <use xlink:href="#DejaVuSans-65" x="886.523438"/>
      <use xlink:href="#DejaVuSans-73" x="948.046875"/>
      <use xlink:href="#DejaVuSans-69" x="1000.146484"/>
      <use xlink:href="#DejaVuSans-64" x="1027.929688"/>
      <use xlink:href="#DejaVuSans-75" x="1091.40625"/>
      <use xlink:href="#DejaVuSans-65" x="1154.785156"/>
      <use xlink:href="#DejaVuSans-20" x="1216.308594"/>
      <use xlink:href="#DejaVuSans-49" x="1248.095703"/>
      <use xlink:href="#DejaVuSans-6e" x="1277.587891"/>
      <use xlink:href="#DejaVuSans-64" x="1340.966797"/>
      <use xlink:href="#DejaVuSans-65" x="1404.443359"/>
      <use xlink:href="#DejaVuSans-78" x="1464.216797"/>
     </g>
    </g>
   </g>
   <g id="matplotlib.axis_4">
    <g id="ytick_10">
     <g id="line2d_28">
      <g>
       <use xlink:href="#m94c50d7db8" x="242.871875" y="230.866473" style="stroke: #000000; stroke-width: 0.8"/>
      </g>
     </g>
    </g>
    <g id="ytick_11">
     <g id="line2d_29">
      <g>
       <use xlink:href="#m94c50d7db8" x="242.871875" y="203.852645" style="stroke: #000000; stroke-width: 0.8"/>
      </g>
     </g>
    </g>
    <g id="ytick_12">
     <g id="line2d_30">
      <g>
       <use xlink:href="#m94c50d7db8" x="242.871875" y="176.838818" style="stroke: #000000; stroke-width: 0.8"/>
      </g>
     </g>
    </g>
    <g id="ytick_13">
     <g id="line2d_31">
      <g>
       <use xlink:href="#m94c50d7db8" x="242.871875" y="149.82499" style="stroke: #000000; stroke-width: 0.8"/>
      </g>
     </g>
    </g>
    <g id="ytick_14">
     <g id="line2d_32">
      <g>
       <use xlink:href="#m94c50d7db8" x="242.871875" y="122.811162" style="stroke: #000000; stroke-width: 0.8"/>
      </g>
     </g>
    </g>
    <g id="ytick_15">
     <g id="line2d_33">
      <g>
       <use xlink:href="#m94c50d7db8" x="242.871875" y="95.797334" style="stroke: #000000; stroke-width: 0.8"/>
      </g>
     </g>
    </g>
    <g id="ytick_16">
     <g id="line2d_34">
      <g>
       <use xlink:href="#m94c50d7db8" x="242.871875" y="68.783506" style="stroke: #000000; stroke-width: 0.8"/>
      </g>
     </g>
    </g>
    <g id="ytick_17">
     <g id="line2d_35">
      <g>
       <use xlink:href="#m94c50d7db8" x="242.871875" y="41.769678" style="stroke: #000000; stroke-width: 0.8"/>
      </g>
     </g>
    </g>
    <g id="ytick_18">
     <g id="line2d_36">
      <g>
       <use xlink:href="#m94c50d7db8" x="242.871875" y="14.75585" style="stroke: #000000; stroke-width: 0.8"/>
      </g>
     </g>
    </g>
   </g>
   <g id="line2d_37">
    <path d="M 242.871875 102.30198 
L 243.492406 177.090531 
L 244.112937 184.552204 
L 244.733467 183.221926 
L 245.353998 178.675149 
L 245.974529 183.898317 
L 246.59506 186.351057 
L 247.215591 184.494974 
L 247.836121 179.081758 
L 248.456652 177.547071 
L 249.077183 171.243584 
L 249.697714 178.739138 
L 250.318244 177.206957 
L 250.938775 187.171673 
L 251.559306 195.063362 
L 252.179837 195.645801 
L 252.800368 197.731026 
L 253.420898 204.86583 
L 254.041429 206.907484 
L 254.66196 208.483624 
L 255.282491 213.095789 
L 255.903022 211.858272 
L 256.523552 209.090803 
L 257.144083 211.269339 
L 257.764614 216.806536 
L 258.385145 207.976812 
L 259.005676 204.428378 
L 259.626206 214.822216 
L 260.246737 216.745164 
L 260.867268 213.201473 
L 261.487799 206.888611 
L 262.10833 214.059349 
L 262.72886 224.094795 
L 263.349391 222.395173 
L 263.969922 216.502538 
L 264.590453 220.039686 
L 265.210983 226.93887 
L 265.831514 227.563091 
L 266.452045 222.429522 
L 267.072576 221.729885 
L 267.693107 226.119698 
L 268.313637 224.394607 
L 268.934168 213.380373 
L 269.554699 205.921923 
L 270.795761 216.331432 
L 271.416291 211.246392 
L 272.036822 211.691278 
L 272.657353 201.626904 
L 273.277884 203.876939 
L 273.898415 200.826599 
L 274.518945 206.217072 
L 275.139476 214.2089 
L 275.760007 207.326841 
L 276.380538 206.930033 
L 277.001068 214.390464 
L 277.621599 214.424209 
L 278.24213 208.997551 
L 278.862661 211.514522 
L 279.483192 216.906827 
L 280.724253 204.14766 
L 281.344784 208.541991 
L 281.965315 217.134846 
L 282.585846 217.941365 
L 283.206376 207.885436 
L 283.826907 211.365882 
L 284.447438 216.067155 
L 285.067969 210.028312 
L 285.6885 208.435778 
L 286.30903 212.321678 
L 286.929561 212.624524 
L 287.550092 208.449644 
L 288.170623 209.162689 
L 288.791153 207.699136 
L 289.411684 200.990084 
L 290.032215 208.20542 
L 290.652746 200.282084 
L 291.273277 205.099715 
L 291.893807 205.576774 
L 292.514338 205.490091 
L 293.134869 216.295267 
L 293.7554 218.726862 
L 294.375931 212.267525 
L 294.996461 216.852255 
L 295.616992 223.410845 
L 296.237523 220.467505 
L 296.858054 223.918395 
L 297.478585 226.685604 
L 298.099115 226.618258 
L 298.719646 225.724661 
L 299.340177 226.541739 
L 299.960708 225.168048 
L 300.581239 222.586285 
L 301.201769 223.848434 
L 301.8223 223.8155 
L 302.442831 219.435983 
L 303.063362 212.833192 
L 303.683892 212.929532 
L 304.304423 217.346413 
L 304.924954 214.762722 
L 305.545485 215.071112 
L 306.166016 205.78024 
L 306.786546 208.884421 
L 307.407077 206.636747 
L 308.027608 209.32812 
L 308.648139 217.907147 
L 309.26867 213.161927 
L 309.8892 205.988159 
L 310.509731 214.62219 
L 311.130262 215.296151 
L 311.750793 202.121613 
L 312.371324 203.893798 
L 312.991854 216.370176 
L 313.612385 217.217584 
L 314.232916 216.285606 
L 314.853447 217.317816 
L 315.473977 223.562651 
L 316.094508 223.156953 
L 316.715039 227.5241 
L 317.33557 228.104367 
L 317.956101 231.942413 
L 318.576631 229.578442 
L 319.197162 226.460643 
L 319.817693 222.381447 
L 320.438224 217.095038 
L 321.058755 210.812991 
L 321.679285 211.513874 
L 322.299816 206.728034 
L 323.540878 219.760191 
L 324.161409 210.611835 
L 324.781939 209.394858 
L 325.40247 219.097444 
L 326.023001 212.393075 
L 326.643532 202.416847 
L 327.264063 208.552477 
L 327.884593 211.363093 
L 328.505124 195.169021 
L 329.125655 191.189795 
L 329.746186 188.891525 
L 330.366716 203.264883 
L 330.987247 205.270678 
L 331.607778 216.542266 
L 332.228309 212.804948 
L 332.84884 207.795465 
L 333.46937 215.236423 
L 334.089901 220.427787 
L 334.710432 209.994277 
L 335.330963 206.54159 
L 335.951494 217.888882 
L 336.572024 222.411636 
L 337.192555 216.448792 
L 337.813086 216.107016 
L 338.433617 202.204275 
L 339.674678 218.224013 
L 340.295209 213.024322 
L 340.91574 199.394266 
L 341.536271 203.507462 
L 342.156801 208.537543 
L 342.777332 224.088929 
L 343.397863 221.587861 
L 344.018394 219.859004 
L 344.638925 204.514043 
L 345.259455 204.956891 
L 345.879986 213.063817 
L 346.500517 215.812754 
L 347.121048 214.743447 
L 347.741579 208.928878 
L 348.362109 211.43795 
L 348.98264 221.181717 
L 349.603171 227.005328 
L 350.223702 223.127631 
L 350.844233 225.36708 
L 351.464763 230.046857 
L 352.085294 228.121014 
L 352.705825 223.778803 
L 353.946886 230.272484 
L 354.567417 226.036593 
L 355.187948 223.547927 
L 355.808479 223.63837 
L 356.42901 209.155792 
L 357.04954 211.98327 
L 357.670071 214.032003 
L 358.290602 215.094423 
L 358.911133 220.513328 
L 359.531664 222.856891 
L 360.152194 223.926794 
L 360.772725 219.614445 
L 361.393256 225.209245 
L 362.013787 225.542918 
L 362.634318 223.811967 
L 363.254848 225.420485 
L 363.875379 226.124128 
L 364.49591 219.387967 
L 365.116441 216.7352 
L 365.736972 224.484795 
L 366.357502 229.965706 
L 366.978033 230.329704 
L 367.598564 230.977413 
L 368.219095 228.980765 
L 368.839625 228.227374 
L 369.460156 221.685555 
L 370.080687 216.806445 
L 370.701218 217.87941 
L 371.321749 211.08054 
L 371.942279 200.931146 
L 372.56281 206.600859 
L 373.183341 186.987214 
L 374.424403 203.807323 
L 375.044933 191.816321 
L 375.665464 193.095882 
L 376.285995 209.193083 
L 376.906526 211.663437 
L 377.527057 208.199275 
L 378.147587 212.987297 
L 378.768118 221.570269 
L 379.388649 221.45376 
L 380.00918 214.479422 
L 380.62971 219.593894 
L 381.250241 222.737315 
L 381.870772 219.345917 
L 382.491303 208.524628 
L 383.111834 207.130133 
L 383.732364 209.892648 
L 384.352895 214.604598 
L 384.973426 193.721825 
L 385.593957 200.475407 
L 386.214488 200.60577 
L 386.835018 205.813278 
L 387.455549 216.105392 
L 388.07608 217.588816 
L 388.696611 214.550364 
L 389.317142 220.885564 
L 389.937672 224.815633 
L 390.558203 223.002155 
L 391.178734 219.232334 
L 392.419795 223.410352 
L 393.040326 218.723839 
L 393.660857 220.176346 
L 394.281388 224.019762 
L 394.901919 220.524771 
L 395.522449 223.635763 
L 396.14298 217.298294 
L 396.763511 217.767529 
L 397.384042 210.284745 
L 398.004573 213.625751 
L 398.625103 201.836184 
L 399.866165 217.083216 
L 400.486696 204.25077 
L 401.107227 203.674476 
L 402.348288 220.666191 
L 402.968819 213.165746 
L 403.58935 209.798351 
L 404.209881 212.621531 
L 404.830411 208.607938 
L 405.450942 184.807752 
L 406.071473 172.469121 
L 406.692004 177.710368 
L 407.312534 172.173135 
L 407.933065 160.70753 
L 408.553596 166.342544 
L 409.174127 154.08027 
L 409.794658 151.324218 
L 410.415188 160.165505 
L 411.035719 132.931178 
L 411.65625 117.534631 
L 411.65625 117.534631 
" clip-path="url(#pc5688e6b18)" style="fill: none; stroke: #007f7d; stroke-width: 1.2; stroke-linecap: round"/>
   </g>
   <g id="line2d_38">
    <path d="M 242.871875 22.630592 
L 243.492406 121.23165 
L 244.112937 168.822177 
L 244.733467 179.070795 
L 245.353998 199.624268 
L 245.974529 212.003875 
L 246.59506 217.368145 
L 247.215591 219.92719 
L 247.836121 216.470746 
L 248.456652 215.578783 
L 249.077183 209.077781 
L 250.318244 208.208819 
L 250.938775 216.915422 
L 251.559306 219.943719 
L 252.179837 218.047649 
L 252.800368 220.33768 
L 253.420898 219.799554 
L 254.041429 221.16605 
L 254.66196 226.737364 
L 255.282491 230.410999 
L 255.903022 224.992007 
L 256.523552 223.472014 
L 257.144083 229.297571 
L 257.764614 233.496178 
L 258.385145 225.875638 
L 259.005676 222.787099 
L 259.626206 224.964654 
L 260.246737 230.401481 
L 260.867268 229.389488 
L 262.72886 236.166933 
L 263.349391 233.175717 
L 263.969922 226.853779 
L 264.590453 231.048474 
L 265.210983 233.960516 
L 265.831514 230.9367 
L 266.452045 228.599621 
L 267.072576 227.154897 
L 267.693107 230.407086 
L 268.313637 231.024057 
L 268.934168 218.126257 
L 269.554699 212.882425 
L 270.17523 221.361395 
L 270.795761 223.510192 
L 271.416291 212.393226 
L 272.036822 215.967782 
L 272.657353 202.281771 
L 273.277884 203.011143 
L 273.898415 198.565287 
L 274.518945 203.58156 
L 275.139476 215.059805 
L 275.760007 207.258136 
L 276.380538 200.99478 
L 277.621599 217.18349 
L 278.24213 209.750619 
L 278.862661 207.975891 
L 279.483192 215.284793 
L 280.103722 214.411914 
L 280.724253 206.012035 
L 282.585846 190.563784 
L 283.206376 177.081948 
L 283.826907 189.853679 
L 284.447438 215.270144 
L 285.067969 208.664853 
L 285.6885 206.161178 
L 286.30903 219.943723 
L 286.929561 228.826658 
L 287.550092 219.458357 
L 288.170623 223.395563 
L 288.791153 228.74721 
L 289.411684 224.266645 
L 290.032215 226.902207 
L 290.652746 223.375727 
L 291.273277 221.715479 
L 291.893807 224.639384 
L 292.514338 230.332169 
L 293.134869 230.079602 
L 293.7554 227.481419 
L 294.375931 226.362084 
L 294.996461 229.591349 
L 295.616992 228.698237 
L 296.237523 224.592112 
L 296.858054 228.855275 
L 297.478585 230.694425 
L 298.099115 228.891262 
L 299.340177 232.726334 
L 299.960708 227.264406 
L 300.581239 225.827855 
L 301.201769 227.897362 
L 301.8223 227.13299 
L 303.063362 218.189953 
L 303.683892 216.326051 
L 304.304423 219.273401 
L 304.924954 214.378687 
L 305.545485 213.725891 
L 306.166016 208.723754 
L 306.786546 206.401159 
L 307.407077 201.297 
L 308.027608 213.055606 
L 308.648139 219.973247 
L 309.26867 213.233161 
L 309.8892 207.859368 
L 310.509731 217.367326 
L 311.130262 219.174229 
L 311.750793 207.223633 
L 312.371324 211.500968 
L 312.991854 223.365709 
L 313.612385 224.343304 
L 314.232916 222.499941 
L 314.853447 221.918281 
L 315.473977 222.797935 
L 316.094508 222.245503 
L 316.715039 228.012923 
L 317.33557 226.443142 
L 317.956101 230.415114 
L 318.576631 231.864783 
L 319.197162 228.185636 
L 319.817693 223.019544 
L 320.438224 211.749803 
L 321.058755 210.33363 
L 321.679285 213.876013 
L 322.299816 208.751501 
L 322.920347 216.924956 
L 323.540878 223.399217 
L 324.161409 218.791994 
L 324.781939 220.056876 
L 325.40247 225.875778 
L 326.023001 217.895225 
L 326.643532 208.282353 
L 327.264063 213.321148 
L 327.884593 210.368841 
L 328.505124 193.560657 
L 329.125655 188.647204 
L 329.746186 184.705559 
L 330.366716 208.036276 
L 330.987247 204.840842 
L 331.607778 213.15441 
L 332.228309 206.383696 
L 332.84884 210.218752 
L 333.46937 224.876503 
L 334.089901 224.400684 
L 334.710432 212.975922 
L 335.330963 218.72055 
L 335.951494 223.396525 
L 336.572024 220.974906 
L 337.192555 210.964672 
L 337.813086 207.072159 
L 338.433617 196.795226 
L 339.054148 192.980229 
L 339.674678 211.056127 
L 340.295209 206.502083 
L 340.91574 193.664712 
L 341.536271 200.116539 
L 342.156801 209.330799 
L 342.777332 221.852185 
L 343.397863 218.083877 
L 344.018394 215.409906 
L 344.638925 206.764579 
L 345.879986 218.553338 
L 346.500517 217.549313 
L 347.121048 223.7896 
L 347.741579 216.945691 
L 348.362109 215.478423 
L 348.98264 217.909475 
L 349.603171 216.898842 
L 350.223702 216.176591 
L 350.844233 217.635541 
L 351.464763 225.834842 
L 352.085294 228.542491 
L 352.705825 222.702135 
L 353.326356 224.34006 
L 353.946886 230.43368 
L 354.567417 226.650689 
L 355.187948 220.564071 
L 355.808479 222.759718 
L 356.42901 209.847659 
L 357.04954 212.339833 
L 357.670071 214.145834 
L 359.531664 226.443483 
L 360.152194 227.097854 
L 360.772725 220.167757 
L 361.393256 223.700651 
L 362.013787 225.195324 
L 362.634318 223.789456 
L 363.254848 225.651755 
L 363.875379 223.690864 
L 364.49591 215.735911 
L 365.116441 216.170869 
L 365.736972 228.162831 
L 366.357502 228.835616 
L 366.978033 233.93701 
L 367.598564 233.529585 
L 368.219095 231.055859 
L 368.839625 227.146159 
L 369.460156 219.710927 
L 370.080687 215.764403 
L 370.701218 216.578259 
L 371.942279 212.841733 
L 372.56281 216.830577 
L 373.183341 205.884915 
L 373.803872 204.453877 
L 374.424403 207.285186 
L 375.044933 194.545143 
L 375.665464 198.727381 
L 376.285995 213.425112 
L 376.906526 212.743848 
L 377.527057 210.798254 
L 378.147587 218.585381 
L 378.768118 227.835783 
L 379.388649 226.88868 
L 380.00918 222.424727 
L 380.62971 228.775259 
L 381.250241 230.470301 
L 381.870772 226.32316 
L 382.491303 225.966947 
L 383.111834 225.045269 
L 383.732364 226.077962 
L 384.973426 219.109395 
L 385.593957 221.624937 
L 386.214488 219.493001 
L 386.835018 224.752447 
L 387.455549 227.632012 
L 388.07608 228.160793 
L 388.696611 225.303619 
L 389.317142 226.661281 
L 389.937672 229.235277 
L 390.558203 228.837766 
L 391.178734 225.130887 
L 391.799265 222.440257 
L 392.419795 224.812703 
L 393.040326 222.432028 
L 393.660857 223.941562 
L 394.281388 225.105692 
L 394.901919 220.829594 
L 395.522449 225.215129 
L 396.14298 217.815036 
L 396.763511 222.286733 
L 397.384042 219.651357 
L 398.004573 222.720846 
L 398.625103 214.874649 
L 399.245634 219.59307 
L 399.866165 225.172649 
L 400.486696 209.462893 
L 401.107227 218.113216 
L 401.727757 221.676442 
L 402.348288 226.428666 
L 402.968819 225.138345 
L 403.58935 229.406962 
L 404.209881 222.843468 
L 404.830411 214.400347 
L 405.450942 197.397523 
L 406.071473 188.874619 
L 406.692004 206.53458 
L 407.312534 205.070709 
L 407.933065 219.523808 
L 408.553596 217.689693 
L 409.174127 212.661458 
L 409.794658 217.202537 
L 410.415188 209.126981 
L 411.035719 219.834129 
L 411.65625 214.316423 
L 411.65625 214.316423 
" clip-path="url(#pc5688e6b18)" style="fill: none; stroke: #00b6b3; stroke-width: 1.2; stroke-linecap: round"/>
   </g>
   <g id="patch_8">
    <path d="M 242.871875 246.84375 
L 242.871875 11.953775 
" style="fill: none; stroke: #000000; stroke-width: 0.8; stroke-linejoin: miter; stroke-linecap: square"/>
   </g>
   <g id="patch_9">
    <path d="M 411.65625 246.84375 
L 411.65625 11.953775 
" style="fill: none; stroke: #000000; stroke-width: 0.8; stroke-linejoin: miter; stroke-linecap: square"/>
   </g>
   <g id="patch_10">
    <path d="M 242.871875 246.84375 
L 411.65625 246.84375 
" style="fill: none; stroke: #000000; stroke-width: 0.8; stroke-linejoin: miter; stroke-linecap: square"/>
   </g>
   <g id="patch_11">
    <path d="M 242.871875 11.953775 
L 411.65625 11.953775 
" style="fill: none; stroke: #000000; stroke-width: 0.8; stroke-linejoin: miter; stroke-linecap: square"/>
   </g>
   <g id="legend_2">
    <g id="line2d_39">
     <path d="M 351.246875 25.052212 
L 361.246875 25.052212 
L 371.246875 25.052212 
" style="fill: none; stroke: #007f7d; stroke-width: 1.2; stroke-linecap: round"/>
    </g>
    <g id="text_29">
     <!-- pH 7 -->
     <g transform="translate(379.246875 28.552212) scale(0.1 -0.1)">
      <use xlink:href="#DejaVuSans-70"/>
      <use xlink:href="#DejaVuSans-48" x="63.476562"/>
      <use xlink:href="#DejaVuSans-20" x="138.671875"/>
      <use xlink:href="#DejaVuSans-37" x="170.458984"/>
     </g>
    </g>
    <g id="line2d_40">
     <path d="M 351.246875 39.730337 
L 361.246875 39.730337 
L 371.246875 39.730337 
" style="fill: none; stroke: #00b6b3; stroke-width: 1.2; stroke-linecap: round"/>
    </g>
    <g id="text_30">
     <!-- pH 5 -->
     <g transform="translate(379.246875 43.230337) scale(0.1 -0.1)">
      <use xlink:href="#DejaVuSans-70"/>
      <use xlink:href="#DejaVuSans-48" x="63.476562"/>
      <use xlink:href="#DejaVuSans-20" x="138.671875"/>
      <use xlink:href="#DejaVuSans-35" x="170.458984"/>
     </g>
    </g>
   </g>
  </g>
 </g>
 <defs>
  <clipPath id="p372b3ed68b">
   <rect x="47.38125" y="11.953775" width="168.784375" height="234.889975"/>
  </clipPath>
  <clipPath id="pc5688e6b18">
   <rect x="242.871875" y="11.953775" width="168.784375" height="234.889975"/>
  </clipPath>
 </defs>
</svg>
