<?xml version="1.0" encoding="utf-8" standalone="no"?>
<!DOCTYPE svg PUBLIC "-//W3C//DTD SVG 1.1//EN"
  "http://www.w3.org/Graphics/SVG/1.1/DTD/svg11.dtd">
<svg xmlns:xlink="http://www.w3.org/1999/xlink" width="360pt" height="288pt" viewBox="0 0 360 288" xmlns="http://www.w3.org/2000/svg" version="1.1">
 <metadata>
  <rdf:RDF xmlns:dc="http://purl.org/dc/elements/1.1/" xmlns:cc="http://creativecommons.org/ns#" xmlns:rdf="http://www.w3.org/1999/02/22-rdf-syntax-ns#">
   <cc:Work>
    <dc:type rdf:resource="http://purl.org/dc/dcmitype/StillImage"/>
    <dc:date>2025-03-24T19:03:15.242418</dc:date>
    <dc:format>image/svg+xml</dc:format>
    <dc:creator>
     <cc:Agent>
      <dc:title>Matplotlib v3.9.0, https://matplotlib.org/</dc:title>
     </cc:Agent>
    </dc:creator>
   </cc:Work>
  </rdf:RDF>
 </metadata>
 <defs>
  <style type="text/css">*{stroke-linejoin: round; stroke-linecap: butt}</style>
 </defs>
 <g id="figure_1">
  <g id="patch_1">
   <path d="M 0 288 
L 360 288 
L 360 0 
L 0 0 
z
" style="fill: #ffffff"/>
  </g>
  <g id="axes_1">
   <g id="patch_2">
    <path d="M 55.782813 246.84375 
L 339.65625 246.84375 
L 339.65625 10.8 
L 55.782813 10.8 
z
" style="fill: #ffffff"/>
   </g>
   <g id="line2d_1">
    <path d="M 55.782813 118.417869 
L 339.65625 118.417869 
" clip-path="url(#p2c9e2fec8d)" style="fill: none; stroke-dasharray: 0.2,6; stroke-dashoffset: 0; stroke: #afafaf; stroke-width: 2; stroke-linecap: round"/>
   </g>
   <g id="matplotlib.axis_1">
    <g id="xtick_1">
     <g id="line2d_2">
      <defs>
       <path id="mc13421c905" d="M 0 0 
L 0 3.5 
" style="stroke: #000000; stroke-width: 0.8"/>
      </defs>
      <g>
       <use xlink:href="#mc13421c905" x="55.782813" y="246.84375" style="stroke: #000000; stroke-width: 0.8"/>
      </g>
     </g>
     <g id="text_1">
      <!-- 21 -->
      <g transform="translate(49.420313 261.442187) scale(0.1 -0.1)">
       <defs>
        <path id="DejaVuSans-32" d="M 1228 531 
L 3431 531 
L 3431 0 
L 469 0 
L 469 531 
Q 828 903 1448 1529 
Q 2069 2156 2228 2338 
Q 2531 2678 2651 2914 
Q 2772 3150 2772 3378 
Q 2772 3750 2511 3984 
Q 2250 4219 1831 4219 
Q 1534 4219 1204 4116 
Q 875 4013 500 3803 
L 500 4441 
Q 881 4594 1212 4672 
Q 1544 4750 1819 4750 
Q 2544 4750 2975 4387 
Q 3406 4025 3406 3419 
Q 3406 3131 3298 2873 
Q 3191 2616 2906 2266 
Q 2828 2175 2409 1742 
Q 1991 1309 1228 531 
z
" transform="scale(0.015625)"/>
        <path id="DejaVuSans-31" d="M 794 531 
L 1825 531 
L 1825 4091 
L 703 3866 
L 703 4441 
L 1819 4666 
L 2450 4666 
L 2450 531 
L 3481 531 
L 3481 0 
L 794 0 
L 794 531 
z
" transform="scale(0.015625)"/>
       </defs>
       <use xlink:href="#DejaVuSans-32"/>
       <use xlink:href="#DejaVuSans-31" x="63.623047"/>
      </g>
     </g>
    </g>
    <g id="xtick_2">
     <g id="line2d_3">
      <g>
       <use xlink:href="#mc13421c905" x="86.04873" y="246.84375" style="stroke: #000000; stroke-width: 0.8"/>
      </g>
     </g>
     <g id="text_2">
      <!-- 50 -->
      <g transform="translate(79.68623 261.442187) scale(0.1 -0.1)">
       <defs>
        <path id="DejaVuSans-35" d="M 691 4666 
L 3169 4666 
L 3169 4134 
L 1269 4134 
L 1269 2991 
Q 1406 3038 1543 3061 
Q 1681 3084 1819 3084 
Q 2600 3084 3056 2656 
Q 3513 2228 3513 1497 
Q 3513 744 3044 326 
Q 2575 -91 1722 -91 
Q 1428 -91 1123 -41 
Q 819 9 494 109 
L 494 744 
Q 775 591 1075 516 
Q 1375 441 1709 441 
Q 2250 441 2565 725 
Q 2881 1009 2881 1497 
Q 2881 1984 2565 2268 
Q 2250 2553 1709 2553 
Q 1456 2553 1204 2497 
Q 953 2441 691 2322 
L 691 4666 
z
" transform="scale(0.015625)"/>
        <path id="DejaVuSans-30" d="M 2034 4250 
Q 1547 4250 1301 3770 
Q 1056 3291 1056 2328 
Q 1056 1369 1301 889 
Q 1547 409 2034 409 
Q 2525 409 2770 889 
Q 3016 1369 3016 2328 
Q 3016 3291 2770 3770 
Q 2525 4250 2034 4250 
z
M 2034 4750 
Q 2819 4750 3233 4129 
Q 3647 3509 3647 2328 
Q 3647 1150 3233 529 
Q 2819 -91 2034 -91 
Q 1250 -91 836 529 
Q 422 1150 422 2328 
Q 422 3509 836 4129 
Q 1250 4750 2034 4750 
z
" transform="scale(0.015625)"/>
       </defs>
       <use xlink:href="#DejaVuSans-35"/>
       <use xlink:href="#DejaVuSans-30" x="63.623047"/>
      </g>
     </g>
    </g>
    <g id="xtick_3">
     <g id="line2d_4">
      <g>
       <use xlink:href="#mc13421c905" x="138.231348" y="246.84375" style="stroke: #000000; stroke-width: 0.8"/>
      </g>
     </g>
     <g id="text_3">
      <!-- 100 -->
      <g transform="translate(128.687598 261.442187) scale(0.1 -0.1)">
       <use xlink:href="#DejaVuSans-31"/>
       <use xlink:href="#DejaVuSans-30" x="63.623047"/>
       <use xlink:href="#DejaVuSans-30" x="127.246094"/>
      </g>
     </g>
    </g>
    <g id="xtick_4">
     <g id="line2d_5">
      <g>
       <use xlink:href="#mc13421c905" x="190.413965" y="246.84375" style="stroke: #000000; stroke-width: 0.8"/>
      </g>
     </g>
     <g id="text_4">
      <!-- 150 -->
      <g transform="translate(180.870215 261.442187) scale(0.1 -0.1)">
       <use xlink:href="#DejaVuSans-31"/>
       <use xlink:href="#DejaVuSans-35" x="63.623047"/>
       <use xlink:href="#DejaVuSans-30" x="127.246094"/>
      </g>
     </g>
    </g>
    <g id="xtick_5">
     <g id="line2d_6">
      <g>
       <use xlink:href="#mc13421c905" x="242.596582" y="246.84375" style="stroke: #000000; stroke-width: 0.8"/>
      </g>
     </g>
     <g id="text_5">
      <!-- 200 -->
      <g transform="translate(233.052832 261.442187) scale(0.1 -0.1)">
       <use xlink:href="#DejaVuSans-32"/>
       <use xlink:href="#DejaVuSans-30" x="63.623047"/>
       <use xlink:href="#DejaVuSans-30" x="127.246094"/>
      </g>
     </g>
    </g>
    <g id="xtick_6">
     <g id="line2d_7">
      <g>
       <use xlink:href="#mc13421c905" x="294.779199" y="246.84375" style="stroke: #000000; stroke-width: 0.8"/>
      </g>
     </g>
     <g id="text_6">
      <!-- 250 -->
      <g transform="translate(285.235449 261.442187) scale(0.1 -0.1)">
       <use xlink:href="#DejaVuSans-32"/>
       <use xlink:href="#DejaVuSans-35" x="63.623047"/>
       <use xlink:href="#DejaVuSans-30" x="127.246094"/>
      </g>
     </g>
    </g>
    <g id="xtick_7">
     <g id="line2d_8">
      <g>
       <use xlink:href="#mc13421c905" x="339.65625" y="246.84375" style="stroke: #000000; stroke-width: 0.8"/>
      </g>
     </g>
     <g id="text_7">
      <!-- 293 -->
      <g transform="translate(330.1125 261.442187) scale(0.1 -0.1)">
       <defs>
        <path id="DejaVuSans-39" d="M 703 97 
L 703 672 
Q 941 559 1184 500 
Q 1428 441 1663 441 
Q 2288 441 2617 861 
Q 2947 1281 2994 2138 
Q 2813 1869 2534 1725 
Q 2256 1581 1919 1581 
Q 1219 1581 811 2004 
Q 403 2428 403 3163 
Q 403 3881 828 4315 
Q 1253 4750 1959 4750 
Q 2769 4750 3195 4129 
Q 3622 3509 3622 2328 
Q 3622 1225 3098 567 
Q 2575 -91 1691 -91 
Q 1453 -91 1209 -44 
Q 966 3 703 97 
z
M 1959 2075 
Q 2384 2075 2632 2365 
Q 2881 2656 2881 3163 
Q 2881 3666 2632 3958 
Q 2384 4250 1959 4250 
Q 1534 4250 1286 3958 
Q 1038 3666 1038 3163 
Q 1038 2656 1286 2365 
Q 1534 2075 1959 2075 
z
" transform="scale(0.015625)"/>
        <path id="DejaVuSans-33" d="M 2597 2516 
Q 3050 2419 3304 2112 
Q 3559 1806 3559 1356 
Q 3559 666 3084 287 
Q 2609 -91 1734 -91 
Q 1441 -91 1130 -33 
Q 819 25 488 141 
L 488 750 
Q 750 597 1062 519 
Q 1375 441 1716 441 
Q 2309 441 2620 675 
Q 2931 909 2931 1356 
Q 2931 1769 2642 2001 
Q 2353 2234 1838 2234 
L 1294 2234 
L 1294 2753 
L 1863 2753 
Q 2328 2753 2575 2939 
Q 2822 3125 2822 3475 
Q 2822 3834 2567 4026 
Q 2313 4219 1838 4219 
Q 1578 4219 1281 4162 
Q 984 4106 628 3988 
L 628 4550 
Q 988 4650 1302 4700 
Q 1616 4750 1894 4750 
Q 2613 4750 3031 4423 
Q 3450 4097 3450 3541 
Q 3450 3153 3228 2886 
Q 3006 2619 2597 2516 
z
" transform="scale(0.015625)"/>
       </defs>
       <use xlink:href="#DejaVuSans-32"/>
       <use xlink:href="#DejaVuSans-39" x="63.623047"/>
       <use xlink:href="#DejaVuSans-33" x="127.246094"/>
      </g>
     </g>
    </g>
    <g id="text_8">
     <!-- PrsA2 Residue Index -->
     <g transform="translate(146.846875 275.120313) scale(0.1 -0.1)">
      <defs>
       <path id="DejaVuSans-50" d="M 1259 4147 
L 1259 2394 
L 2053 2394 
Q 2494 2394 2734 2622 
Q 2975 2850 2975 3272 
Q 2975 3691 2734 3919 
Q 2494 4147 2053 4147 
L 1259 4147 
z
M 628 4666 
L 2053 4666 
Q 2838 4666 3239 4311 
Q 3641 3956 3641 3272 
Q 3641 2581 3239 2228 
Q 2838 1875 2053 1875 
L 1259 1875 
L 1259 0 
L 628 0 
L 628 4666 
z
" transform="scale(0.015625)"/>
       <path id="DejaVuSans-72" d="M 2631 2963 
Q 2534 3019 2420 3045 
Q 2306 3072 2169 3072 
Q 1681 3072 1420 2755 
Q 1159 2438 1159 1844 
L 1159 0 
L 581 0 
L 581 3500 
L 1159 3500 
L 1159 2956 
Q 1341 3275 1631 3429 
Q 1922 3584 2338 3584 
Q 2397 3584 2469 3576 
Q 2541 3569 2628 3553 
L 2631 2963 
z
" transform="scale(0.015625)"/>
       <path id="DejaVuSans-73" d="M 2834 3397 
L 2834 2853 
Q 2591 2978 2328 3040 
Q 2066 3103 1784 3103 
Q 1356 3103 1142 2972 
Q 928 2841 928 2578 
Q 928 2378 1081 2264 
Q 1234 2150 1697 2047 
L 1894 2003 
Q 2506 1872 2764 1633 
Q 3022 1394 3022 966 
Q 3022 478 2636 193 
Q 2250 -91 1575 -91 
Q 1294 -91 989 -36 
Q 684 19 347 128 
L 347 722 
Q 666 556 975 473 
Q 1284 391 1588 391 
Q 1994 391 2212 530 
Q 2431 669 2431 922 
Q 2431 1156 2273 1281 
Q 2116 1406 1581 1522 
L 1381 1569 
Q 847 1681 609 1914 
Q 372 2147 372 2553 
Q 372 3047 722 3315 
Q 1072 3584 1716 3584 
Q 2034 3584 2315 3537 
Q 2597 3491 2834 3397 
z
" transform="scale(0.015625)"/>
       <path id="DejaVuSans-41" d="M 2188 4044 
L 1331 1722 
L 3047 1722 
L 2188 4044 
z
M 1831 4666 
L 2547 4666 
L 4325 0 
L 3669 0 
L 3244 1197 
L 1141 1197 
L 716 0 
L 50 0 
L 1831 4666 
z
" transform="scale(0.015625)"/>
       <path id="DejaVuSans-20" transform="scale(0.015625)"/>
       <path id="DejaVuSans-52" d="M 2841 2188 
Q 3044 2119 3236 1894 
Q 3428 1669 3622 1275 
L 4263 0 
L 3584 0 
L 2988 1197 
Q 2756 1666 2539 1819 
Q 2322 1972 1947 1972 
L 1259 1972 
L 1259 0 
L 628 0 
L 628 4666 
L 2053 4666 
Q 2853 4666 3247 4331 
Q 3641 3997 3641 3322 
Q 3641 2881 3436 2590 
Q 3231 2300 2841 2188 
z
M 1259 4147 
L 1259 2491 
L 2053 2491 
Q 2509 2491 2742 2702 
Q 2975 2913 2975 3322 
Q 2975 3731 2742 3939 
Q 2509 4147 2053 4147 
L 1259 4147 
z
" transform="scale(0.015625)"/>
       <path id="DejaVuSans-65" d="M 3597 1894 
L 3597 1613 
L 953 1613 
Q 991 1019 1311 708 
Q 1631 397 2203 397 
Q 2534 397 2845 478 
Q 3156 559 3463 722 
L 3463 178 
Q 3153 47 2828 -22 
Q 2503 -91 2169 -91 
Q 1331 -91 842 396 
Q 353 884 353 1716 
Q 353 2575 817 3079 
Q 1281 3584 2069 3584 
Q 2775 3584 3186 3129 
Q 3597 2675 3597 1894 
z
M 3022 2063 
Q 3016 2534 2758 2815 
Q 2500 3097 2075 3097 
Q 1594 3097 1305 2825 
Q 1016 2553 972 2059 
L 3022 2063 
z
" transform="scale(0.015625)"/>
       <path id="DejaVuSans-69" d="M 603 3500 
L 1178 3500 
L 1178 0 
L 603 0 
L 603 3500 
z
M 603 4863 
L 1178 4863 
L 1178 4134 
L 603 4134 
L 603 4863 
z
" transform="scale(0.015625)"/>
       <path id="DejaVuSans-64" d="M 2906 2969 
L 2906 4863 
L 3481 4863 
L 3481 0 
L 2906 0 
L 2906 525 
Q 2725 213 2448 61 
Q 2172 -91 1784 -91 
Q 1150 -91 751 415 
Q 353 922 353 1747 
Q 353 2572 751 3078 
Q 1150 3584 1784 3584 
Q 2172 3584 2448 3432 
Q 2725 3281 2906 2969 
z
M 947 1747 
Q 947 1113 1208 752 
Q 1469 391 1925 391 
Q 2381 391 2643 752 
Q 2906 1113 2906 1747 
Q 2906 2381 2643 2742 
Q 2381 3103 1925 3103 
Q 1469 3103 1208 2742 
Q 947 2381 947 1747 
z
" transform="scale(0.015625)"/>
       <path id="DejaVuSans-75" d="M 544 1381 
L 544 3500 
L 1119 3500 
L 1119 1403 
Q 1119 906 1312 657 
Q 1506 409 1894 409 
Q 2359 409 2629 706 
Q 2900 1003 2900 1516 
L 2900 3500 
L 3475 3500 
L 3475 0 
L 2900 0 
L 2900 538 
Q 2691 219 2414 64 
Q 2138 -91 1772 -91 
Q 1169 -91 856 284 
Q 544 659 544 1381 
z
M 1991 3584 
L 1991 3584 
z
" transform="scale(0.015625)"/>
       <path id="DejaVuSans-49" d="M 628 4666 
L 1259 4666 
L 1259 0 
L 628 0 
L 628 4666 
z
" transform="scale(0.015625)"/>
       <path id="DejaVuSans-6e" d="M 3513 2113 
L 3513 0 
L 2938 0 
L 2938 2094 
Q 2938 2591 2744 2837 
Q 2550 3084 2163 3084 
Q 1697 3084 1428 2787 
Q 1159 2491 1159 1978 
L 1159 0 
L 581 0 
L 581 3500 
L 1159 3500 
L 1159 2956 
Q 1366 3272 1645 3428 
Q 1925 3584 2291 3584 
Q 2894 3584 3203 3211 
Q 3513 2838 3513 2113 
z
" transform="scale(0.015625)"/>
       <path id="DejaVuSans-78" d="M 3513 3500 
L 2247 1797 
L 3578 0 
L 2900 0 
L 1881 1375 
L 863 0 
L 184 0 
L 1544 1831 
L 300 3500 
L 978 3500 
L 1906 2253 
L 2834 3500 
L 3513 3500 
z
" transform="scale(0.015625)"/>
      </defs>
      <use xlink:href="#DejaVuSans-50"/>
      <use xlink:href="#DejaVuSans-72" x="58.552734"/>
      <use xlink:href="#DejaVuSans-73" x="99.666016"/>
      <use xlink:href="#DejaVuSans-41" x="151.765625"/>
      <use xlink:href="#DejaVuSans-32" x="220.173828"/>
      <use xlink:href="#DejaVuSans-20" x="283.796875"/>
      <use xlink:href="#DejaVuSans-52" x="315.583984"/>
      <use xlink:href="#DejaVuSans-65" x="380.566406"/>
      <use xlink:href="#DejaVuSans-73" x="442.089844"/>
      <use xlink:href="#DejaVuSans-69" x="494.189453"/>
      <use xlink:href="#DejaVuSans-64" x="521.972656"/>
      <use xlink:href="#DejaVuSans-75" x="585.449219"/>
      <use xlink:href="#DejaVuSans-65" x="648.828125"/>
      <use xlink:href="#DejaVuSans-20" x="710.351562"/>
      <use xlink:href="#DejaVuSans-49" x="742.138672"/>
      <use xlink:href="#DejaVuSans-6e" x="771.630859"/>
      <use xlink:href="#DejaVuSans-64" x="835.009766"/>
      <use xlink:href="#DejaVuSans-65" x="898.486328"/>
      <use xlink:href="#DejaVuSans-78" x="958.259766"/>
     </g>
    </g>
   </g>
   <g id="matplotlib.axis_2">
    <g id="ytick_1">
     <g id="line2d_9">
      <defs>
       <path id="mbac41defac" d="M 0 0 
L -3.5 0 
" style="stroke: #000000; stroke-width: 0.8"/>
      </defs>
      <g>
       <use xlink:href="#mbac41defac" x="55.782813" y="216.972654" style="stroke: #000000; stroke-width: 0.8"/>
      </g>
     </g>
     <g id="text_9">
      <!-- −1.5 -->
      <g transform="translate(24.5 220.771872) scale(0.1 -0.1)">
       <defs>
        <path id="DejaVuSans-2212" d="M 678 2272 
L 4684 2272 
L 4684 1741 
L 678 1741 
L 678 2272 
z
" transform="scale(0.015625)"/>
        <path id="DejaVuSans-2e" d="M 684 794 
L 1344 794 
L 1344 0 
L 684 0 
L 684 794 
z
" transform="scale(0.015625)"/>
       </defs>
       <use xlink:href="#DejaVuSans-2212"/>
       <use xlink:href="#DejaVuSans-31" x="83.789062"/>
       <use xlink:href="#DejaVuSans-2e" x="147.412109"/>
       <use xlink:href="#DejaVuSans-35" x="179.199219"/>
      </g>
     </g>
    </g>
    <g id="ytick_2">
     <g id="line2d_10">
      <g>
       <use xlink:href="#mbac41defac" x="55.782813" y="184.121059" style="stroke: #000000; stroke-width: 0.8"/>
      </g>
     </g>
     <g id="text_10">
      <!-- −1.0 -->
      <g transform="translate(24.5 187.920278) scale(0.1 -0.1)">
       <use xlink:href="#DejaVuSans-2212"/>
       <use xlink:href="#DejaVuSans-31" x="83.789062"/>
       <use xlink:href="#DejaVuSans-2e" x="147.412109"/>
       <use xlink:href="#DejaVuSans-30" x="179.199219"/>
      </g>
     </g>
    </g>
    <g id="ytick_3">
     <g id="line2d_11">
      <g>
       <use xlink:href="#mbac41defac" x="55.782813" y="151.269464" style="stroke: #000000; stroke-width: 0.8"/>
      </g>
     </g>
     <g id="text_11">
      <!-- −0.5 -->
      <g transform="translate(24.5 155.068683) scale(0.1 -0.1)">
       <use xlink:href="#DejaVuSans-2212"/>
       <use xlink:href="#DejaVuSans-30" x="83.789062"/>
       <use xlink:href="#DejaVuSans-2e" x="147.412109"/>
       <use xlink:href="#DejaVuSans-35" x="179.199219"/>
      </g>
     </g>
    </g>
    <g id="ytick_4">
     <g id="line2d_12">
      <g>
       <use xlink:href="#mbac41defac" x="55.782813" y="118.417869" style="stroke: #000000; stroke-width: 0.8"/>
      </g>
     </g>
     <g id="text_12">
      <!-- 0.0 -->
      <g transform="translate(32.879688 122.217088) scale(0.1 -0.1)">
       <use xlink:href="#DejaVuSans-30"/>
       <use xlink:href="#DejaVuSans-2e" x="63.623047"/>
       <use xlink:href="#DejaVuSans-30" x="95.410156"/>
      </g>
     </g>
    </g>
    <g id="ytick_5">
     <g id="line2d_13">
      <g>
       <use xlink:href="#mbac41defac" x="55.782813" y="85.566274" style="stroke: #000000; stroke-width: 0.8"/>
      </g>
     </g>
     <g id="text_13">
      <!-- 0.5 -->
      <g transform="translate(32.879688 89.365493) scale(0.1 -0.1)">
       <use xlink:href="#DejaVuSans-30"/>
       <use xlink:href="#DejaVuSans-2e" x="63.623047"/>
       <use xlink:href="#DejaVuSans-35" x="95.410156"/>
      </g>
     </g>
    </g>
    <g id="ytick_6">
     <g id="line2d_14">
      <g>
       <use xlink:href="#mbac41defac" x="55.782813" y="52.71468" style="stroke: #000000; stroke-width: 0.8"/>
      </g>
     </g>
     <g id="text_14">
      <!-- 1.0 -->
      <g transform="translate(32.879688 56.513898) scale(0.1 -0.1)">
       <use xlink:href="#DejaVuSans-31"/>
       <use xlink:href="#DejaVuSans-2e" x="63.623047"/>
       <use xlink:href="#DejaVuSans-30" x="95.410156"/>
      </g>
     </g>
    </g>
    <g id="ytick_7">
     <g id="line2d_15">
      <g>
       <use xlink:href="#mbac41defac" x="55.782813" y="19.863085" style="stroke: #000000; stroke-width: 0.8"/>
      </g>
     </g>
     <g id="text_15">
      <!-- 1.5 -->
      <g transform="translate(32.879688 23.662303) scale(0.1 -0.1)">
       <use xlink:href="#DejaVuSans-31"/>
       <use xlink:href="#DejaVuSans-2e" x="63.623047"/>
       <use xlink:href="#DejaVuSans-35" x="95.410156"/>
      </g>
     </g>
    </g>
    <g id="text_16">
     <!-- $\bf{\Delta}$RMSF from pH 7 to pH 5 -->
     <g transform="translate(18.4 193.071875) rotate(-90) scale(0.1 -0.1)">
      <defs>
       <path id="DejaVuSans-Bold-394" d="M 4922 0 
L 31 0 
L 1759 4666 
L 3194 4666 
L 4922 0 
z
M 1559 909 
L 3384 909 
L 2478 3572 
L 1559 909 
z
" transform="scale(0.015625)"/>
       <path id="DejaVuSans-4d" d="M 628 4666 
L 1569 4666 
L 2759 1491 
L 3956 4666 
L 4897 4666 
L 4897 0 
L 4281 0 
L 4281 4097 
L 3078 897 
L 2444 897 
L 1241 4097 
L 1241 0 
L 628 0 
L 628 4666 
z
" transform="scale(0.015625)"/>
       <path id="DejaVuSans-53" d="M 3425 4513 
L 3425 3897 
Q 3066 4069 2747 4153 
Q 2428 4238 2131 4238 
Q 1616 4238 1336 4038 
Q 1056 3838 1056 3469 
Q 1056 3159 1242 3001 
Q 1428 2844 1947 2747 
L 2328 2669 
Q 3034 2534 3370 2195 
Q 3706 1856 3706 1288 
Q 3706 609 3251 259 
Q 2797 -91 1919 -91 
Q 1588 -91 1214 -16 
Q 841 59 441 206 
L 441 856 
Q 825 641 1194 531 
Q 1563 422 1919 422 
Q 2459 422 2753 634 
Q 3047 847 3047 1241 
Q 3047 1584 2836 1778 
Q 2625 1972 2144 2069 
L 1759 2144 
Q 1053 2284 737 2584 
Q 422 2884 422 3419 
Q 422 4038 858 4394 
Q 1294 4750 2059 4750 
Q 2388 4750 2728 4690 
Q 3069 4631 3425 4513 
z
" transform="scale(0.015625)"/>
       <path id="DejaVuSans-46" d="M 628 4666 
L 3309 4666 
L 3309 4134 
L 1259 4134 
L 1259 2759 
L 3109 2759 
L 3109 2228 
L 1259 2228 
L 1259 0 
L 628 0 
L 628 4666 
z
" transform="scale(0.015625)"/>
       <path id="DejaVuSans-66" d="M 2375 4863 
L 2375 4384 
L 1825 4384 
Q 1516 4384 1395 4259 
Q 1275 4134 1275 3809 
L 1275 3500 
L 2222 3500 
L 2222 3053 
L 1275 3053 
L 1275 0 
L 697 0 
L 697 3053 
L 147 3053 
L 147 3500 
L 697 3500 
L 697 3744 
Q 697 4328 969 4595 
Q 1241 4863 1831 4863 
L 2375 4863 
z
" transform="scale(0.015625)"/>
       <path id="DejaVuSans-6f" d="M 1959 3097 
Q 1497 3097 1228 2736 
Q 959 2375 959 1747 
Q 959 1119 1226 758 
Q 1494 397 1959 397 
Q 2419 397 2687 759 
Q 2956 1122 2956 1747 
Q 2956 2369 2687 2733 
Q 2419 3097 1959 3097 
z
M 1959 3584 
Q 2709 3584 3137 3096 
Q 3566 2609 3566 1747 
Q 3566 888 3137 398 
Q 2709 -91 1959 -91 
Q 1206 -91 779 398 
Q 353 888 353 1747 
Q 353 2609 779 3096 
Q 1206 3584 1959 3584 
z
" transform="scale(0.015625)"/>
       <path id="DejaVuSans-6d" d="M 3328 2828 
Q 3544 3216 3844 3400 
Q 4144 3584 4550 3584 
Q 5097 3584 5394 3201 
Q 5691 2819 5691 2113 
L 5691 0 
L 5113 0 
L 5113 2094 
Q 5113 2597 4934 2840 
Q 4756 3084 4391 3084 
Q 3944 3084 3684 2787 
Q 3425 2491 3425 1978 
L 3425 0 
L 2847 0 
L 2847 2094 
Q 2847 2600 2669 2842 
Q 2491 3084 2119 3084 
Q 1678 3084 1418 2786 
Q 1159 2488 1159 1978 
L 1159 0 
L 581 0 
L 581 3500 
L 1159 3500 
L 1159 2956 
Q 1356 3278 1631 3431 
Q 1906 3584 2284 3584 
Q 2666 3584 2933 3390 
Q 3200 3197 3328 2828 
z
" transform="scale(0.015625)"/>
       <path id="DejaVuSans-70" d="M 1159 525 
L 1159 -1331 
L 581 -1331 
L 581 3500 
L 1159 3500 
L 1159 2969 
Q 1341 3281 1617 3432 
Q 1894 3584 2278 3584 
Q 2916 3584 3314 3078 
Q 3713 2572 3713 1747 
Q 3713 922 3314 415 
Q 2916 -91 2278 -91 
Q 1894 -91 1617 61 
Q 1341 213 1159 525 
z
M 3116 1747 
Q 3116 2381 2855 2742 
Q 2594 3103 2138 3103 
Q 1681 3103 1420 2742 
Q 1159 2381 1159 1747 
Q 1159 1113 1420 752 
Q 1681 391 2138 391 
Q 2594 391 2855 752 
Q 3116 1113 3116 1747 
z
" transform="scale(0.015625)"/>
       <path id="DejaVuSans-48" d="M 628 4666 
L 1259 4666 
L 1259 2753 
L 3553 2753 
L 3553 4666 
L 4184 4666 
L 4184 0 
L 3553 0 
L 3553 2222 
L 1259 2222 
L 1259 0 
L 628 0 
L 628 4666 
z
" transform="scale(0.015625)"/>
       <path id="DejaVuSans-37" d="M 525 4666 
L 3525 4666 
L 3525 4397 
L 1831 0 
L 1172 0 
L 2766 4134 
L 525 4134 
L 525 4666 
z
" transform="scale(0.015625)"/>
       <path id="DejaVuSans-74" d="M 1172 4494 
L 1172 3500 
L 2356 3500 
L 2356 3053 
L 1172 3053 
L 1172 1153 
Q 1172 725 1289 603 
Q 1406 481 1766 481 
L 2356 481 
L 2356 0 
L 1766 0 
Q 1100 0 847 248 
Q 594 497 594 1153 
L 594 3053 
L 172 3053 
L 172 3500 
L 594 3500 
L 594 4494 
L 1172 4494 
z
" transform="scale(0.015625)"/>
      </defs>
      <use xlink:href="#DejaVuSans-Bold-394" transform="translate(0 0.015625)"/>
      <use xlink:href="#DejaVuSans-52" transform="translate(77.392578 0.015625)"/>
      <use xlink:href="#DejaVuSans-4d" transform="translate(146.875 0.015625)"/>
      <use xlink:href="#DejaVuSans-53" transform="translate(233.154297 0.015625)"/>
      <use xlink:href="#DejaVuSans-46" transform="translate(296.630859 0.015625)"/>
      <use xlink:href="#DejaVuSans-20" transform="translate(354.150391 0.015625)"/>
      <use xlink:href="#DejaVuSans-66" transform="translate(385.9375 0.015625)"/>
      <use xlink:href="#DejaVuSans-72" transform="translate(421.142578 0.015625)"/>
      <use xlink:href="#DejaVuSans-6f" transform="translate(462.255859 0.015625)"/>
      <use xlink:href="#DejaVuSans-6d" transform="translate(523.4375 0.015625)"/>
      <use xlink:href="#DejaVuSans-20" transform="translate(620.849609 0.015625)"/>
      <use xlink:href="#DejaVuSans-70" transform="translate(652.636719 0.015625)"/>
      <use xlink:href="#DejaVuSans-48" transform="translate(716.113281 0.015625)"/>
      <use xlink:href="#DejaVuSans-20" transform="translate(791.308594 0.015625)"/>
      <use xlink:href="#DejaVuSans-37" transform="translate(823.095703 0.015625)"/>
      <use xlink:href="#DejaVuSans-20" transform="translate(886.71875 0.015625)"/>
      <use xlink:href="#DejaVuSans-74" transform="translate(918.505859 0.015625)"/>
      <use xlink:href="#DejaVuSans-6f" transform="translate(957.714844 0.015625)"/>
      <use xlink:href="#DejaVuSans-20" transform="translate(1018.896484 0.015625)"/>
      <use xlink:href="#DejaVuSans-70" transform="translate(1050.683594 0.015625)"/>
      <use xlink:href="#DejaVuSans-48" transform="translate(1114.160156 0.015625)"/>
      <use xlink:href="#DejaVuSans-20" transform="translate(1189.355469 0.015625)"/>
      <use xlink:href="#DejaVuSans-35" transform="translate(1221.142578 0.015625)"/>
     </g>
    </g>
   </g>
   <g id="line2d_16">
    <path d="M 55.782813 186.437942 
L 56.826465 119.336431 
L 57.870117 115.947247 
L 58.91377 119.113413 
L 59.957422 131.409752 
L 61.001074 128.98246 
L 62.044727 129.049211 
L 63.088379 133.2208 
L 64.132031 135.552603 
L 65.175684 137.452431 
L 66.219336 143.771388 
L 67.262988 137.810967 
L 68.306641 130.819292 
L 69.350293 130.466692 
L 70.393945 133.341049 
L 71.437598 127.037939 
L 72.48125 130.346263 
L 73.524902 132.301076 
L 74.568555 138.290356 
L 75.612207 137.192779 
L 76.655859 134.077805 
L 77.699512 139.661786 
L 78.743164 147.410443 
L 80.830469 131.099974 
L 81.874121 138.145394 
L 82.917773 143.431396 
L 83.961426 130.059214 
L 85.005078 120.467389 
L 86.04873 105.751433 
L 87.092383 97.270573 
L 88.136035 91.388065 
L 89.179688 108.728527 
L 90.22334 117.41281 
L 91.266992 109.534152 
L 92.310645 106.829387 
L 93.354297 118.180661 
L 94.397949 125.205706 
L 95.441602 123.852095 
L 96.485254 124.962472 
L 97.528906 125.713131 
L 98.572559 121.962032 
L 99.616211 123.877235 
L 100.659863 130.280339 
L 101.703516 124.456999 
L 102.747168 116.15798 
L 103.79082 116.227114 
L 104.834473 120.016537 
L 105.878125 129.407857 
L 106.921777 132.656529 
L 107.96543 140.974384 
L 109.009082 140.16077 
L 110.052734 130.178416 
L 111.096387 139.244711 
L 112.140039 150.466291 
L 113.183691 143.951948 
L 114.227344 132.049101 
L 116.314648 174.120727 
L 118.401953 136.295977 
L 119.445605 150.547221 
L 120.489258 149.520335 
L 121.53291 134.858313 
L 122.576563 133.781097 
L 123.620215 139.73083 
L 124.663867 128.943596 
L 125.70752 122.527389 
L 126.751172 120.313976 
L 128.838477 132.968026 
L 129.882129 122.506626 
L 130.925781 122.407853 
L 131.969434 149.779182 
L 133.013086 151.035227 
L 134.056738 140.760438 
L 135.100391 133.268352 
L 136.144043 124.80516 
L 138.231348 126.346659 
L 139.275 132.500681 
L 140.318652 128.81048 
L 141.362305 124.513904 
L 142.405957 125.752873 
L 143.449609 128.217058 
L 144.493262 125.232483 
L 145.536914 124.20156 
L 146.580566 124.703495 
L 147.624219 127.980922 
L 148.667871 127.537787 
L 149.711523 122.622439 
L 150.755176 124.943063 
L 151.798828 125.974652 
L 152.84248 123.105622 
L 153.886133 121.677321 
L 154.929785 123.117337 
L 155.973438 121.625636 
L 157.01709 115.890259 
L 158.060742 116.269252 
L 159.104395 121.753227 
L 160.148047 122.048114 
L 161.191699 140.793525 
L 162.235352 131.094333 
L 163.279004 130.669067 
L 164.322656 124.19286 
L 165.366309 125.841807 
L 166.409961 131.162137 
L 167.453613 133.588003 
L 168.497266 132.661431 
L 169.540918 133.448002 
L 170.58457 135.400485 
L 171.628223 139.788192 
L 172.671875 139.146867 
L 173.715527 136.28062 
L 175.802832 138.23785 
L 176.846484 141.91204 
L 177.890137 141.898152 
L 178.933789 148.318783 
L 179.977441 133.39957 
L 181.021094 123.842416 
L 182.064746 124.324517 
L 183.108398 122.710533 
L 184.152051 118.542038 
L 185.195703 116.681567 
L 186.239355 120.667357 
L 187.283008 120.337809 
L 188.32666 126.470975 
L 189.370313 123.972488 
L 190.413965 122.723297 
L 191.457617 126.798459 
L 192.50127 127.679575 
L 193.544922 127.019412 
L 194.588574 127.059601 
L 195.632227 126.501759 
L 196.675879 133.981542 
L 197.719531 138.164604 
L 198.763184 135.012965 
L 199.806836 141.045485 
L 200.850488 158.278937 
L 201.894141 164.855729 
L 202.937793 149.847412 
L 203.981445 143.005784 
L 205.025098 133.691053 
L 206.06875 135.24085 
L 207.112402 130.027605 
L 208.156055 126.23736 
L 209.199707 121.725602 
L 210.243359 119.148525 
L 211.287012 123.032173 
L 212.330664 123.062996 
L 213.374316 118.255011 
L 214.417969 118.30768 
L 215.461621 120.75546 
L 216.505273 118.684555 
L 217.548926 117.977825 
L 218.592578 118.083119 
L 219.63623 113.122948 
L 220.679883 110.079653 
L 221.723535 112.470257 
L 222.767188 112.747352 
L 223.81084 115.12896 
L 225.898145 136.532348 
L 226.941797 138.382438 
L 227.985449 143.382528 
L 229.029102 144.974653 
L 231.116406 183.109243 
L 232.160059 177.126326 
L 234.247363 157.445862 
L 235.291016 159.956256 
L 236.334668 166.939159 
L 237.37832 155.276774 
L 238.421973 141.606497 
L 239.465625 149.854132 
L 240.509277 150.182373 
L 241.55293 128.559367 
L 242.596582 122.023837 
L 244.683887 147.70466 
L 245.727539 146.88676 
L 246.771191 140.714278 
L 247.814844 150.427096 
L 248.858496 147.740018 
L 249.902148 131.063875 
L 250.945801 132.071084 
L 251.989453 128.28237 
L 253.033105 131.993846 
L 254.076758 132.933518 
L 255.12041 130.77324 
L 256.164062 136.06771 
L 257.207715 138.965092 
L 258.251367 133.2713 
L 259.29502 123.878958 
L 260.338672 110.197795 
L 261.382324 123.460334 
L 262.425977 130.424362 
L 263.469629 126.951683 
L 264.513281 128.872656 
L 265.556934 128.52902 
L 266.600586 129.495608 
L 267.644238 132.07589 
L 268.687891 133.511321 
L 269.731543 143.188059 
L 270.775195 144.993573 
L 271.818848 148.44453 
L 272.8625 130.027915 
L 273.906152 129.901129 
L 275.993457 139.111605 
L 277.037109 138.697497 
L 278.080762 151.729641 
L 279.124414 133.694322 
L 280.168066 134.948582 
L 281.211719 137.110248 
L 282.255371 134.903475 
L 283.299023 131.636704 
L 284.342676 132.758267 
L 285.386328 136.619784 
L 286.42998 135.13682 
L 287.473633 139.242447 
L 288.517285 137.305446 
L 290.60459 148.679101 
L 291.648242 139.820409 
L 292.691895 132.653136 
L 293.735547 121.460611 
L 294.779199 119.13704 
L 295.822852 123.897039 
L 296.866504 122.378135 
L 298.953809 122.220211 
L 299.997461 123.008134 
L 301.041113 120.686939 
L 303.128418 124.928196 
L 304.17207 129.311813 
L 305.215723 128.198971 
L 306.259375 125.420041 
L 308.34668 132.582928 
L 309.390332 131.989635 
L 310.433984 129.802028 
L 311.477637 131.914368 
L 312.521289 130.091012 
L 313.564941 131.092859 
L 315.652246 127.7005 
L 316.695898 129.844416 
L 317.739551 142.488022 
L 318.783203 138.077123 
L 319.826855 129.402788 
L 320.870508 119.516952 
L 321.91416 125.673045 
L 322.957813 136.964291 
L 324.001465 134.67557 
L 325.045117 137.112757 
L 326.08877 126.989627 
L 327.132422 131.487378 
L 328.176074 122.971438 
L 329.219727 121.330409 
L 330.263379 117.869182 
L 331.307031 126.886465 
L 332.350684 157.449078 
L 333.394336 143.618163 
L 334.437988 115.496155 
L 335.481641 99.097996 
L 336.525293 150.022731 
L 337.568945 77.11128 
L 338.612598 47.980193 
L 339.65625 25.911737 
L 339.65625 25.911737 
" clip-path="url(#p2c9e2fec8d)" style="fill: none; stroke: #003594; stroke-width: 1.2; stroke-linecap: round"/>
   </g>
   <g id="line2d_17">
    <path d="M 55.782813 21.529261 
L 56.826465 50.487721 
L 57.870117 99.288538 
L 58.91377 113.369667 
L 59.957422 143.894154 
L 61.001074 152.59712 
L 62.044727 156.13784 
L 63.088379 161.50709 
L 64.132031 163.886727 
L 65.175684 164.668344 
L 66.219336 164.428146 
L 67.262988 154.786397 
L 68.306641 156.119325 
L 69.350293 154.589329 
L 70.393945 148.674944 
L 71.437598 145.660821 
L 72.48125 145.909886 
L 73.524902 136.578815 
L 74.568555 135.757753 
L 75.612207 140.616296 
L 76.655859 139.474946 
L 77.699512 134.389843 
L 78.743164 135.906902 
L 79.786816 140.342056 
L 80.830469 138.714191 
L 81.874121 140.184683 
L 82.917773 140.743964 
L 83.961426 130.752118 
L 85.005078 135.025356 
L 86.04873 138.104161 
L 87.092383 148.554039 
L 88.136035 142.734918 
L 89.179688 133.098831 
L 90.22334 131.528121 
L 91.266992 131.006044 
L 92.310645 131.805688 
L 94.397949 122.520525 
L 95.441602 125.921345 
L 96.485254 125.015242 
L 97.528906 123.631775 
L 98.572559 126.479964 
L 99.616211 124.189353 
L 100.659863 126.882557 
L 101.703516 130.262533 
L 102.747168 127.14798 
L 103.79082 119.812537 
L 104.834473 123.618538 
L 105.878125 119.214255 
L 107.96543 115.667882 
L 109.009082 115.212815 
L 110.052734 119.452657 
L 111.096387 118.334317 
L 112.140039 111.199991 
L 113.183691 111.593053 
L 114.227344 121.773439 
L 115.270996 119.333678 
L 116.314648 114.114531 
L 117.358301 116.445308 
L 118.401953 123.480104 
L 119.445605 120.685141 
L 120.489258 109.162952 
L 121.53291 92.257425 
L 122.576563 85.123913 
L 123.620215 80.957657 
L 124.663867 92.256816 
L 125.70752 117.448622 
L 126.751172 116.759763 
L 127.794824 115.651721 
L 128.838477 127.687061 
L 129.882129 138.121332 
L 130.925781 131.805597 
L 131.969434 135.726508 
L 133.013086 144.014493 
L 134.056738 146.724563 
L 135.100391 141.155086 
L 136.144043 146.502115 
L 137.187695 138.624348 
L 138.231348 141.599964 
L 139.275 148.628392 
L 140.318652 135.181039 
L 141.362305 129.064312 
L 142.405957 135.558304 
L 143.449609 133.909919 
L 144.493262 124.847881 
L 145.536914 123.433816 
L 146.580566 124.421623 
L 147.624219 123.293009 
L 148.667871 121.182076 
L 149.711523 124.724574 
L 150.755176 125.938973 
L 151.798828 120.967256 
L 152.84248 122.359951 
L 153.886133 123.341782 
L 154.929785 122.452278 
L 155.973438 122.120785 
L 157.01709 124.932241 
L 158.060742 122.548385 
L 159.104395 120.761285 
L 160.148047 117.950843 
L 161.191699 116.781942 
L 162.235352 121.997486 
L 163.279004 115.397967 
L 164.322656 111.924188 
L 165.366309 122.950875 
L 166.409961 120.930459 
L 167.453613 118.504497 
L 168.497266 120.693453 
L 169.540918 121.756237 
L 171.628223 124.62245 
L 172.671875 127.668971 
L 173.715527 126.925158 
L 174.75918 127.083477 
L 175.802832 125.97514 
L 176.846484 124.012508 
L 177.890137 117.487896 
L 178.933789 117.309453 
L 179.977441 119.012329 
L 181.021094 116.397649 
L 182.064746 116.560517 
L 183.108398 121.198295 
L 184.152051 120.515638 
L 185.195703 119.19386 
L 186.239355 111.917514 
L 187.283008 117.834917 
L 188.32666 121.290473 
L 189.370313 120.878613 
L 190.413965 122.554211 
L 191.457617 122.8433 
L 192.50127 128.365784 
L 193.544922 131.38398 
L 194.588574 126.661021 
L 195.632227 125.10905 
L 196.675879 125.550928 
L 197.719531 124.217063 
L 198.763184 117.208756 
L 199.806836 116.461933 
L 200.850488 115.325816 
L 201.894141 113.327304 
L 202.937793 124.220374 
L 203.981445 117.895145 
L 206.06875 110.608966 
L 207.112402 121.364836 
L 208.156055 130.141198 
L 209.199707 123.249321 
L 210.243359 122.043856 
L 211.287012 133.228739 
L 213.374316 116.670658 
L 214.417969 111.748615 
L 215.461621 107.430553 
L 216.505273 111.839908 
L 217.548926 98.126476 
L 218.592578 109.700982 
L 219.63623 110.486154 
L 220.679883 111.450142 
L 221.723535 114.294158 
L 222.767188 119.38255 
L 223.81084 115.697758 
L 224.854492 114.156664 
L 225.898145 113.007308 
L 226.941797 121.154753 
L 227.985449 127.439533 
L 229.029102 125.093692 
L 230.072754 120.529704 
L 231.116406 129.418922 
L 232.160059 128.167139 
L 233.203711 123.3315 
L 235.291016 106.127342 
L 236.334668 109.964689 
L 237.37832 109.015522 
L 238.421973 113.295625 
L 239.465625 118.930429 
L 240.509277 117.10853 
L 241.55293 115.057217 
L 242.596582 118.6139 
L 243.640234 119.164674 
L 244.683887 114.789193 
L 245.727539 117.349337 
L 246.771191 119.259251 
L 248.858496 118.556299 
L 249.902148 122.132958 
L 250.945801 120.669909 
L 251.989453 122.779534 
L 253.033105 122.274205 
L 254.076758 119.090753 
L 255.12041 116.583264 
L 256.164062 117.995158 
L 258.251367 118.699118 
L 259.29502 115.45877 
L 260.338672 113.976594 
L 261.382324 117.731585 
L 262.425977 122.890739 
L 263.469629 117.043564 
L 264.513281 122.804724 
L 265.556934 121.521573 
L 266.600586 120.941397 
L 267.644238 117.103001 
L 268.687891 116.016518 
L 269.731543 117.150639 
L 270.775195 116.835535 
L 271.818848 122.96579 
L 272.8625 132.902369 
L 273.906152 130.858259 
L 274.949805 141.399418 
L 275.993457 129.233476 
L 277.037109 122.647309 
L 278.080762 121.736397 
L 279.124414 125.266353 
L 280.168066 123.564453 
L 281.211719 119.73176 
L 282.255371 121.578496 
L 283.299023 125.225715 
L 284.342676 126.037379 
L 285.386328 125.027291 
L 286.42998 128.080177 
L 287.473633 129.583354 
L 288.517285 127.821976 
L 289.560938 126.902914 
L 290.60459 139.629525 
L 291.648242 140.204519 
L 292.691895 138.100877 
L 293.735547 127.880351 
L 294.779199 149.291767 
L 295.822852 144.137875 
L 296.866504 141.386686 
L 297.910156 141.449848 
L 298.953809 132.435425 
L 299.997461 131.274481 
L 301.041113 131.494935 
L 302.084766 125.441736 
L 303.128418 123.792612 
L 304.17207 125.514573 
L 305.215723 125.591117 
L 306.259375 119.616285 
L 307.303027 120.123272 
L 308.34668 122.927408 
L 309.390332 122.996759 
L 310.433984 119.738472 
L 311.477637 118.788565 
L 312.521289 120.338541 
L 313.564941 119.046281 
L 314.608594 123.913686 
L 315.652246 129.808634 
L 316.695898 129.478442 
L 317.739551 134.273985 
L 318.783203 130.618595 
L 319.826855 128.255452 
L 320.870508 124.756348 
L 321.91416 135.976863 
L 322.957813 129.404216 
L 324.001465 125.425632 
L 325.045117 132.977782 
L 326.08877 142.263958 
L 327.132422 130.848796 
L 328.176074 125.462035 
L 329.219727 133.728327 
L 330.263379 138.368643 
L 331.307031 153.471077 
L 332.350684 158.424705 
L 333.394336 189.944517 
L 334.437988 180.861287 
L 336.525293 198.532685 
L 337.568945 177.960063 
L 338.612598 224.100802 
L 339.65625 236.114489 
L 339.65625 236.114489 
" clip-path="url(#p2c9e2fec8d)" style="fill: none; stroke: #007f7d; stroke-width: 1.2; stroke-linecap: round"/>
   </g>
   <g id="patch_3">
    <path d="M 55.782813 246.84375 
L 55.782813 10.8 
" style="fill: none; stroke: #000000; stroke-width: 0.8; stroke-linejoin: miter; stroke-linecap: square"/>
   </g>
   <g id="patch_4">
    <path d="M 339.65625 246.84375 
L 339.65625 10.8 
" style="fill: none; stroke: #000000; stroke-width: 0.8; stroke-linejoin: miter; stroke-linecap: square"/>
   </g>
   <g id="patch_5">
    <path d="M 55.782813 246.84375 
L 339.65625 246.84375 
" style="fill: none; stroke: #000000; stroke-width: 0.8; stroke-linejoin: miter; stroke-linecap: square"/>
   </g>
   <g id="patch_6">
    <path d="M 55.782813 10.8 
L 339.65625 10.8 
" style="fill: none; stroke: #000000; stroke-width: 0.8; stroke-linejoin: miter; stroke-linecap: square"/>
   </g>
   <g id="legend_1">
    <g id="line2d_18">
     <path d="M 263.042188 23.898438 
L 273.042188 23.898438 
L 283.042188 23.898438 
" style="fill: none; stroke: #003594; stroke-width: 1.2; stroke-linecap: round"/>
    </g>
    <g id="text_17">
     <!-- Chain P -->
     <g transform="translate(291.042188 27.398438) scale(0.1 -0.1)">
      <defs>
       <path id="DejaVuSans-43" d="M 4122 4306 
L 4122 3641 
Q 3803 3938 3442 4084 
Q 3081 4231 2675 4231 
Q 1875 4231 1450 3742 
Q 1025 3253 1025 2328 
Q 1025 1406 1450 917 
Q 1875 428 2675 428 
Q 3081 428 3442 575 
Q 3803 722 4122 1019 
L 4122 359 
Q 3791 134 3420 21 
Q 3050 -91 2638 -91 
Q 1578 -91 968 557 
Q 359 1206 359 2328 
Q 359 3453 968 4101 
Q 1578 4750 2638 4750 
Q 3056 4750 3426 4639 
Q 3797 4528 4122 4306 
z
" transform="scale(0.015625)"/>
       <path id="DejaVuSans-68" d="M 3513 2113 
L 3513 0 
L 2938 0 
L 2938 2094 
Q 2938 2591 2744 2837 
Q 2550 3084 2163 3084 
Q 1697 3084 1428 2787 
Q 1159 2491 1159 1978 
L 1159 0 
L 581 0 
L 581 4863 
L 1159 4863 
L 1159 2956 
Q 1366 3272 1645 3428 
Q 1925 3584 2291 3584 
Q 2894 3584 3203 3211 
Q 3513 2838 3513 2113 
z
" transform="scale(0.015625)"/>
       <path id="DejaVuSans-61" d="M 2194 1759 
Q 1497 1759 1228 1600 
Q 959 1441 959 1056 
Q 959 750 1161 570 
Q 1363 391 1709 391 
Q 2188 391 2477 730 
Q 2766 1069 2766 1631 
L 2766 1759 
L 2194 1759 
z
M 3341 1997 
L 3341 0 
L 2766 0 
L 2766 531 
Q 2569 213 2275 61 
Q 1981 -91 1556 -91 
Q 1019 -91 701 211 
Q 384 513 384 1019 
Q 384 1609 779 1909 
Q 1175 2209 1959 2209 
L 2766 2209 
L 2766 2266 
Q 2766 2663 2505 2880 
Q 2244 3097 1772 3097 
Q 1472 3097 1187 3025 
Q 903 2953 641 2809 
L 641 3341 
Q 956 3463 1253 3523 
Q 1550 3584 1831 3584 
Q 2591 3584 2966 3190 
Q 3341 2797 3341 1997 
z
" transform="scale(0.015625)"/>
      </defs>
      <use xlink:href="#DejaVuSans-43"/>
      <use xlink:href="#DejaVuSans-68" x="69.824219"/>
      <use xlink:href="#DejaVuSans-61" x="133.203125"/>
      <use xlink:href="#DejaVuSans-69" x="194.482422"/>
      <use xlink:href="#DejaVuSans-6e" x="222.265625"/>
      <use xlink:href="#DejaVuSans-20" x="285.644531"/>
      <use xlink:href="#DejaVuSans-50" x="317.431641"/>
     </g>
    </g>
    <g id="line2d_19">
     <path d="M 263.042188 38.576562 
L 273.042188 38.576562 
L 283.042188 38.576562 
" style="fill: none; stroke: #007f7d; stroke-width: 1.2; stroke-linecap: round"/>
    </g>
    <g id="text_18">
     <!-- Chain Q -->
     <g transform="translate(291.042188 42.076562) scale(0.1 -0.1)">
      <defs>
       <path id="DejaVuSans-51" d="M 2522 4238 
Q 1834 4238 1429 3725 
Q 1025 3213 1025 2328 
Q 1025 1447 1429 934 
Q 1834 422 2522 422 
Q 3209 422 3611 934 
Q 4013 1447 4013 2328 
Q 4013 3213 3611 3725 
Q 3209 4238 2522 4238 
z
M 3406 84 
L 4238 -825 
L 3475 -825 
L 2784 -78 
Q 2681 -84 2626 -87 
Q 2572 -91 2522 -91 
Q 1538 -91 948 567 
Q 359 1225 359 2328 
Q 359 3434 948 4092 
Q 1538 4750 2522 4750 
Q 3503 4750 4090 4092 
Q 4678 3434 4678 2328 
Q 4678 1516 4351 937 
Q 4025 359 3406 84 
z
" transform="scale(0.015625)"/>
      </defs>
      <use xlink:href="#DejaVuSans-43"/>
      <use xlink:href="#DejaVuSans-68" x="69.824219"/>
      <use xlink:href="#DejaVuSans-61" x="133.203125"/>
      <use xlink:href="#DejaVuSans-69" x="194.482422"/>
      <use xlink:href="#DejaVuSans-6e" x="222.265625"/>
      <use xlink:href="#DejaVuSans-20" x="285.644531"/>
      <use xlink:href="#DejaVuSans-51" x="317.431641"/>
     </g>
    </g>
   </g>
  </g>
 </g>
 <defs>
  <clipPath id="p2c9e2fec8d">
   <rect x="55.782813" y="10.8" width="283.873438" height="236.04375"/>
  </clipPath>
 </defs>
</svg>
